<?xml version="1.0" encoding="utf-8"?>
<!-- Generator: Adobe Illustrator 22.1.0, SVG Export Plug-In . SVG Version: 6.00 Build 0)  -->
<svg version="1.1" id="Layer_1" xmlns="http://www.w3.org/2000/svg" xmlns:xlink="http://www.w3.org/1999/xlink" x="0px" y="0px"
	 viewBox="0 0 2000 2068" style="enable-background:new 0 0 2000 2068;" xml:space="preserve">
<style type="text/css">
	.st0{fill:none;stroke:#231F20;stroke-width:0.15;}
	.st1{fill:#B1B0B2;}
	.st2{fill:#F37920;}
	.st3{fill:#00A0DD;}
	.st4{fill:#FAA61A;}
	.st5{fill:#ED1B2E;}
	.st6{fill:#64B145;}
	.st7{fill:none;stroke:#231F20;stroke-width:0.75;}
	.st8{fill:#009FDD;}
	.st9{fill:#F9A51A;}
	.st10{fill:#444445;}
	.st11{fill:#EC1B2E;}
	.st12{fill:#66B245;}
	.st13{fill:none;}
	.st14{enable-background:new    ;}
</style>
<g id="Layer_4">
	<line class="st0" x1="821.5" y1="450.5" x2="2000" y2="450.5"/>
	<line class="st0" x1="41" y1="589.5" x2="2000" y2="589.5"/>
	<line class="st0" x1="1523.5" y1="177.3" x2="2000" y2="177.3"/>
	<line class="st0" x1="807.5" y1="314.7" x2="2000" y2="314.7"/>
	<line class="st0" x1="1631.8" y1="40" x2="2000" y2="40"/>
	<line class="st0" x1="41" y1="725.1" x2="2000" y2="725.1"/>
	<line class="st0" x1="41" y1="862.5" x2="2000" y2="862.5"/>
	<line class="st0" x1="60.4" y1="1001.8" x2="2000" y2="1001.8"/>
	<line class="st0" x1="60.4" y1="1139.2" x2="2000" y2="1139.2"/>
	<line class="st0" x1="60.4" y1="1274.4" x2="2000" y2="1274.4"/>
	<line class="st0" x1="60.4" y1="1415.7" x2="2000" y2="1415.7"/>
	<line class="st0" x1="60.4" y1="1546.4" x2="2000" y2="1546.4"/>
	<line class="st0" x1="60.4" y1="1688.4" x2="2000" y2="1688.4"/>
	<line class="st0" x1="60.4" y1="1825.7" x2="2000" y2="1825.7"/>
	<g id="Layer_5">
		<g>
			<g>
				<polygon class="st1" points="1769.5,1963.8 34,1963.8 34,834.7 103.4,827.5 172.8,812.3 242.3,788.7 311.7,754.2 381.1,740.6 
					450.5,733.3 519.9,711.6 589.4,680.1 658.8,665.7 728.2,636 797.6,587.5 867,519.8 936.5,469.2 1005.9,424.4 1075.3,373.9 
					1144.7,353.3 1214.1,379.2 1283.6,301 1353,260.6 1422.4,236.6 1491.8,203.6 1561.2,186.5 1630.7,172 1700.1,144.2 
					1769.5,108.4 				"/>
			</g>
			<g>
				<polygon class="st2" points="1769.5,1963.8 34,1963.8 34,1135.2 103.4,1129.2 172.8,1115.8 242.3,1093.8 311.7,1067 
					381.1,1053.8 450.5,1044.1 519.9,1024.2 589.4,1003.4 658.8,994.2 728.2,977.4 797.6,958.8 867,916.8 936.5,895.3 1005.9,872.4 
					1075.3,847.5 1144.7,833.6 1214.1,852.1 1283.6,795.7 1353,779 1422.4,757.2 1491.8,733.9 1561.2,716.4 1630.7,688.6 
					1700.1,652.7 1769.5,620.4 				"/>
			</g>
			<g>
				<polygon class="st3" points="1769.5,1963.8 34,1963.8 34,1139.4 103.4,1133.6 172.8,1120.4 242.3,1098.6 311.7,1072 
					381.1,1059.2 450.5,1049.9 519.9,1030.4 589.4,1010.2 658.8,1001.4 728.2,985.5 797.6,967.6 867,926.8 936.5,906.5 
					1005.9,885.2 1075.3,862.1 1144.7,850.6 1214.1,871.8 1283.6,819.1 1353,806.9 1422.4,789.9 1491.8,772.7 1561.2,760.3 
					1630.7,739.1 1700.1,710.2 1769.5,688.1 				"/>
			</g>
			<g>
				<polygon class="st4" points="1769.5,1963.8 34,1963.8 34,1208.1 103.4,1206.4 172.8,1193.6 242.3,1175.9 311.7,1150.3 
					381.1,1139 450.5,1130.3 519.9,1111.3 589.4,1092.6 658.8,1081.7 728.2,1067.2 797.6,1049.2 867,1014 936.5,997.1 1005.9,979.2 
					1075.3,957.8 1144.7,951.9 1214.1,972.8 1283.6,925.8 1353,915.7 1422.4,903.9 1491.8,890.6 1561.2,881 1630.7,859.9 
					1700.1,835.8 1769.5,814.8 				"/>
			</g>
			<g>
				<polygon class="st5" points="1769.5,1963.8 34,1963.8 34,1273.7 103.4,1274.2 172.8,1262.7 242.3,1248 311.7,1225 381.1,1213.2 
					450.5,1205.8 519.9,1189.7 589.4,1172.7 658.8,1164.1 728.2,1150.9 797.6,1131.2 867,1099.6 936.5,1083.1 1005.9,1066.3 
					1075.3,1043 1144.7,1036.9 1214.1,1056.6 1283.6,1011.7 1353,998 1422.4,980.7 1491.8,968 1561.2,959.9 1630.7,939.9 
					1700.1,916.9 1769.5,896.7 				"/>
			</g>
			<g>
				<polygon class="st6" points="1769.5,1963.8 34,1963.8 34,1510.5 103.4,1513.4 172.8,1503.5 242.3,1497.2 311.7,1486.2 
					381.1,1473.7 450.5,1471.1 519.9,1462.3 589.4,1456.1 658.8,1451.6 728.2,1447.1 797.6,1435.2 867,1415.2 936.5,1408 
					1005.9,1400.7 1075.3,1392 1144.7,1394.6 1214.1,1404.4 1283.6,1386.3 1353,1380.4 1422.4,1373.2 1491.8,1365.7 1561.2,1360.8 
					1630.7,1349.7 1700.1,1338.5 1769.5,1329.7 				"/>
			</g>
		</g>
	</g>
	<line class="st7" x1="2000" y1="1964.7" x2="41" y2="1964.7"/>
	<g id="key_3_">
		<rect x="33" y="51" class="st1" width="70" height="70"/>
		<rect x="34" y="271" class="st8" width="70" height="70"/>
		<rect x="34" y="381" class="st9" width="70" height="70"/>
		<rect x="32" y="160" class="st2" width="70" height="70"/>
		<g>
			<path class="st10" d="M174.3,67.7c-0.3-1.8-0.8-3.3-1.6-4.5c-0.8-1.3-1.9-2.3-3.1-3.1c-1.2-0.8-2.6-1.4-4.1-1.8
				c-1.5-0.4-3.1-0.6-4.8-0.6c-3.7,0-6.8,0.8-9.2,2.3c-2.5,1.5-4.5,3.5-6,5.9s-2.5,5.1-3.2,8.2c-0.6,3-0.9,6-0.9,8.9
				c0,3,0.3,6,0.9,9c0.6,3,1.7,5.7,3.2,8.1s3.5,4.4,6,5.9s5.6,2.3,9.2,2.3c1.6,0,3.2-0.2,4.7-0.6s3-1,4.2-1.9
				c1.3-0.9,2.4-1.9,3.3-3.2c0.9-1.3,1.6-2.9,2-4.7h5.6c-0.4,2.4-1.3,4.5-2.5,6.4c-1.3,1.9-2.8,3.5-4.6,4.8s-3.8,2.3-6,3
				s-4.5,1-6.8,1c-4.4,0-8.1-0.8-11.3-2.4c-3.1-1.6-5.7-3.8-7.7-6.6c-2-2.8-3.5-6-4.4-9.6c-1-3.6-1.4-7.4-1.4-11.4
				c0-3.9,0.5-7.7,1.4-11.4c1-3.6,2.5-6.8,4.5-9.6c2-2.8,4.6-5,7.7-6.6c3.1-1.7,6.9-2.5,11.2-2.5c2.3,0,4.6,0.3,6.8,0.8
				c2.2,0.6,4.2,1.4,6,2.6c1.8,1.2,3.2,2.7,4.4,4.6c1.1,1.8,1.8,4.1,2,6.7L174.3,67.7L174.3,67.7z"/>
			<path class="st10" d="M205.4,70.6c3.2,0,6,0.6,8.3,1.8c2.3,1.2,4.3,2.8,5.8,4.8s2.7,4.3,3.4,6.8c0.7,2.6,1.1,5.1,1.1,7.8
				c0,2.7-0.4,5.3-1.1,7.8c-0.7,2.5-1.9,4.8-3.4,6.8s-3.5,3.6-5.8,4.8c-2.3,1.2-5.1,1.8-8.3,1.8s-6-0.6-8.3-1.8
				c-2.3-1.2-4.3-2.8-5.8-4.8s-2.7-4.3-3.4-6.8s-1.1-5.1-1.1-7.8c0-2.6,0.4-5.2,1.1-7.8c0.7-2.6,1.9-4.8,3.4-6.8s3.5-3.6,5.8-4.8
				S202.2,70.6,205.4,70.6z M218.9,91.8c0-1.9-0.3-3.8-0.8-5.8s-1.3-3.8-2.4-5.4c-1.1-1.6-2.5-3-4.2-4c-1.7-1.1-3.8-1.6-6.2-1.6
				s-4.5,0.5-6.2,1.6s-3.1,2.4-4.2,4c-1.1,1.6-1.9,3.4-2.4,5.4s-0.8,3.9-0.8,5.8s0.3,3.8,0.8,5.8s1.3,3.8,2.4,5.4
				c1.1,1.6,2.5,3,4.2,4c1.7,1.1,3.8,1.6,6.2,1.6s4.5-0.5,6.2-1.6s3.1-2.4,4.2-4c1.1-1.6,1.9-3.4,2.4-5.4
				C218.6,95.6,218.9,93.7,218.9,91.8z"/>
			<path class="st10" d="M255.5,83.6c-0.3-3.3-1.2-5.6-2.8-6.8c-1.6-1.2-3.8-1.8-6.7-1.8c-1.3,0-2.5,0.1-3.6,0.3
				c-1.1,0.2-2.1,0.6-3,1.1s-1.6,1.3-2.2,2.2c-0.6,0.9-0.9,2-1.1,3.4H231c0.3-2.1,0.9-3.8,1.8-5.3s2-2.6,3.3-3.5s2.8-1.6,4.5-2
				s3.5-0.6,5.4-0.6c4.4,0,7.9,1.1,10.5,3.2s3.8,5.5,3.8,10.1v19c-0.1,1.5,0,3.1,0.1,4.6s0.2,3,0.3,4.4h-5l-0.2-5.9h-0.2l-0.2,0.6
				c-0.4,0.9-1.1,1.7-1.9,2.4c-0.9,0.8-1.8,1.5-3,2.1s-2.3,1.1-3.7,1.5c-1.3,0.4-2.7,0.6-4,0.6c-1.9,0-3.6-0.3-5.2-0.8
				c-1.6-0.6-3-1.4-4.2-2.4c-1.2-1.1-2.1-2.4-2.8-3.9s-1-3.3-1-5.2c0-2.7,0.7-5.1,2.2-7.1s3.4-3.5,5.8-4.5c1.3-0.6,2.8-1,4.3-1.2
				s3.1-0.4,4.6-0.4c1.6-0.1,3.1-0.1,4.7,0c1.6,0,3.1,0,4.5-0.1L255.5,83.6L255.5,83.6z M234.5,100.7c0,2.7,0.9,4.7,2.7,6
				s3.9,2,6.4,2c2.6,0,4.7-0.5,6.4-1.5c1.6-1,2.9-2.3,3.8-3.9c0.9-1.6,1.4-3.4,1.7-5.5c0.2-2.1,0.3-4.1,0.2-6.2
				c-1.7,0.1-3.8,0.1-6.2,0.1s-4.7,0.2-6.9,0.7s-4.1,1.3-5.6,2.6C235.2,96.3,234.5,98.2,234.5,100.7z"/>
			<path class="st10" d="M276.5,111.9h-4.8V54.2h4.8V111.9z"/>
			<path class="st10" d="M144.4,225.9h-5.2v-57.8h18.9c2.5,0,4.9,0.2,7,0.5c2.2,0.3,4.4,1.2,6.6,2.5c2,1.2,3.5,2.9,4.5,4.9
				s1.4,4.4,1.4,7.2c0,3.1-1,5.8-3,7.9c-2,2.1-4.7,3.6-8.1,4.5v0.2c1.8,0.3,3.3,0.9,4.5,1.6c1.2,0.7,2.1,1.7,2.8,2.8
				s1.3,2.4,1.6,3.8c0.3,1.4,0.6,3,0.8,4.6c0.3,2.3,0.5,4.4,0.6,6.2s0.3,3.3,0.4,4.6c0.2,1.3,0.4,2.5,0.7,3.6c0.3,1,0.7,2,1.3,2.8
				h-6c-0.7-1.9-1.2-3.9-1.4-5.9s-0.4-4.1-0.6-6.1c-0.3-3.3-0.7-6-1-8s-0.9-3.6-1.8-4.7c-0.8-1.1-2-1.9-3.5-2.2s-3.6-0.6-6.2-0.6
				h-14.3V225.9z M155.5,193.6c1.8,0,3.7-0.1,5.6-0.2c1.9-0.2,3.7-0.6,5.3-1.2s2.9-1.7,4-3.1s1.6-3.3,1.6-5.8c0-2.8-0.6-4.9-1.7-6.3
				c-1.1-1.4-2.5-2.4-4.2-3c-1.6-0.6-3.4-0.9-5.2-1c-1.8,0-3.5,0-4.8,0h-11.7v20.6H155.5z"/>
			<path class="st10" d="M192.3,207c0.1,2.1,0.3,4.2,0.9,6.1c0.5,1.9,1.4,3.6,2.5,5s2.5,2.6,4.3,3.4c1.7,0.8,3.8,1.2,6.3,1.2
				c1.4,0,2.8-0.2,4-0.7c1.3-0.5,2.4-1.1,3.4-2s1.9-1.9,2.6-3c0.7-1.2,1.2-2.5,1.5-3.8h5c-1.2,4.9-3.3,8.4-6.4,10.6
				c-3,2.2-6.9,3.4-11.8,3.4c-3,0-5.6-0.6-7.8-1.8s-4-2.8-5.5-4.8c-1.4-2-2.5-4.2-3.2-6.8s-1.1-5.2-1.1-7.9s0.4-5.4,1.1-7.9
				c0.7-2.6,1.9-4.8,3.4-6.8s3.4-3.6,5.6-4.8c2.2-1.2,4.9-1.8,7.8-1.8c3.4,0,6.2,0.6,8.5,1.7c2.3,1.1,4.2,2.7,5.7,4.8
				c1.5,2,2.5,4.4,3.2,7.1c0.6,2.7,1,5.7,1,8.8H192.3z M218.2,202.6c-0.2-1.9-0.5-3.7-1.1-5.4s-1.4-3.1-2.5-4.3s-2.4-2.1-4-2.8
				s-3.4-1-5.5-1c-2,0-3.7,0.4-5.2,1.1c-1.5,0.7-2.8,1.8-3.8,3c-1,1.3-1.9,2.7-2.5,4.4c-0.6,1.6-1,3.3-1.2,5.1h25.8V202.6z"/>
			<path class="st10" d="M237.6,225.9h-4.8v-31.1c0-1.5,0-3.1-0.1-4.6s-0.2-3-0.3-4.4h5l0.2,5.9l0.2,0.2c1.4-2.5,3.2-4.3,5.4-5.5
				s4.6-1.8,7.2-1.8c2.2,0,4.1,0.3,5.6,0.9c1.5,0.6,2.8,1.3,3.9,2.3c1,0.9,1.9,2,2.5,3.2s1.1,2.4,1.4,3.6c0.3,1.2,0.5,2.4,0.6,3.5
				s0.1,2.1,0.1,2.8V226h-4.8v-26c0-3.5-0.9-6.2-2.8-8.2c-1.9-1.9-4.5-2.9-7.8-2.9c-2,0-3.7,0.4-5.1,1.2c-1.4,0.8-2.6,1.8-3.6,3.1
				s-1.7,2.7-2.1,4.4c-0.5,1.7-0.7,3.4-0.7,5.2V225.9z"/>
			<path class="st10" d="M278.9,207c0.1,2.1,0.3,4.2,0.9,6.1c0.5,1.9,1.4,3.6,2.5,5s2.5,2.6,4.3,3.4c1.7,0.8,3.8,1.2,6.3,1.2
				c1.4,0,2.8-0.2,4-0.7c1.3-0.5,2.4-1.1,3.4-2s1.9-1.9,2.6-3c0.7-1.2,1.2-2.5,1.5-3.8h5c-1.2,4.9-3.3,8.4-6.4,10.6
				c-3,2.2-6.9,3.4-11.8,3.4c-3,0-5.6-0.6-7.8-1.8c-2.2-1.2-4-2.8-5.5-4.8c-1.4-2-2.5-4.2-3.2-6.8s-1.1-5.2-1.1-7.9s0.4-5.4,1.1-7.9
				c0.7-2.6,1.9-4.8,3.4-6.8s3.4-3.6,5.6-4.8s4.9-1.8,7.8-1.8c3.4,0,6.2,0.6,8.5,1.7c2.3,1.1,4.2,2.7,5.7,4.8c1.5,2,2.5,4.4,3.2,7.1
				c0.6,2.7,1,5.7,1,8.8H278.9z M304.7,202.6c-0.2-1.9-0.5-3.7-1.1-5.4s-1.4-3.1-2.5-4.3s-2.4-2.1-4-2.8s-3.4-1-5.5-1
				c-2,0-3.7,0.4-5.2,1.1c-1.5,0.7-2.8,1.8-3.8,3c-1,1.3-1.9,2.7-2.5,4.4c-0.6,1.6-1,3.3-1.2,5.1h25.8L304.7,202.6L304.7,202.6z"/>
			<path class="st10" d="M331.5,219.6h0.2l12.2-33.8h5.7l11.8,33.5h0.2l11.6-33.5h5.3l-15,40.2h-4.6l-12.3-34.6h-0.2L333.8,226H329
				l-14.7-40.2h5.3L331.5,219.6z"/>
			<path class="st10" d="M407.5,197.6c-0.3-3.3-1.2-5.6-2.8-6.8c-1.6-1.2-3.8-1.8-6.7-1.8c-1.3,0-2.5,0.1-3.6,0.3s-2.1,0.6-3,1.1
				s-1.6,1.3-2.2,2.2s-0.9,2-1.1,3.4H383c0.3-2.1,0.9-3.8,1.8-5.3s2-2.6,3.3-3.5s2.8-1.6,4.5-2s3.5-0.6,5.4-0.6
				c4.4,0,7.9,1.1,10.5,3.2c2.6,2.1,3.8,5.5,3.8,10.1v19c-0.1,1.5,0,3.1,0.1,4.6s0.2,3,0.3,4.4h-5l-0.2-5.9h-0.2l-0.2,0.6
				c-0.4,0.9-1.1,1.7-1.9,2.4c-0.9,0.8-1.8,1.5-3,2.1s-2.3,1.1-3.7,1.5c-1.3,0.4-2.7,0.6-4,0.6c-1.9,0-3.6-0.3-5.2-0.8
				c-1.6-0.6-3-1.4-4.2-2.4c-1.2-1.1-2.1-2.4-2.8-3.9c-0.7-1.5-1-3.3-1-5.2c0-2.7,0.7-5.1,2.2-7.1s3.4-3.5,5.8-4.5
				c1.3-0.6,2.8-1,4.3-1.2s3.1-0.4,4.6-0.4c1.6-0.1,3.1-0.1,4.7,0c1.6,0,3.1,0,4.5-0.1v-4L407.5,197.6L407.5,197.6z M386.5,214.7
				c0,2.7,0.9,4.7,2.7,6c1.8,1.3,3.9,2,6.4,2c2.6,0,4.7-0.5,6.4-1.5c1.6-1,2.9-2.3,3.8-3.9c0.9-1.6,1.4-3.4,1.7-5.5
				c0.2-2.1,0.3-4.1,0.2-6.2c-1.7,0.1-3.8,0.1-6.2,0.1s-4.7,0.2-6.9,0.7c-2.2,0.5-4.1,1.3-5.6,2.6
				C387.2,210.3,386.5,212.2,386.5,214.7z"/>
			<path class="st10" d="M427.4,225.9h-5c0.1-1.4,0.2-2.9,0.3-4.4c0.1-1.5,0.1-3.1,0.1-4.6v-48.7h4.8v23.5l0.2,0.2
				c1.4-2.3,3.4-4.1,5.9-5.4c2.6-1.3,5.2-1.9,7.8-1.9c3,0,5.5,0.6,7.6,1.8s3.8,2.8,5.1,4.8c1.3,2,2.3,4.3,2.9,6.8s0.9,5.1,0.9,7.7
				c0,2.5-0.3,5-0.9,7.6s-1.5,4.9-2.8,6.9c-1.3,2.1-3,3.7-5,5c-2.1,1.3-4.5,1.9-7.5,1.9c-2.9,0-5.6-0.6-8-1.9
				c-2.4-1.3-4.4-3.1-6-5.5l-0.2,0.3L427.4,225.9z M440.6,189c-2.3,0-4.3,0.5-6,1.4c-1.6,0.9-3,2.1-4,3.6s-1.8,3.2-2.3,5.2
				c-0.5,1.9-0.7,3.9-0.7,6c0,2.3,0.2,4.5,0.7,6.6s1.2,4,2.2,5.6s2.4,2.9,4.2,3.9c1.8,1,3.9,1.5,6.6,1.5c2.3,0,4.2-0.6,5.7-1.7
				c1.5-1.1,2.7-2.5,3.5-4.2c0.9-1.7,1.5-3.6,1.8-5.6c0.3-2.1,0.5-4,0.5-5.9s-0.2-3.9-0.6-5.8c-0.4-1.9-1.1-3.7-2.1-5.2
				s-2.2-2.8-3.8-3.8C444.8,189.5,442.8,189,440.6,189z"/>
			<path class="st10" d="M471.8,225.9H467v-57.8h4.8V225.9z"/>
			<path class="st10" d="M486.2,207c0.1,2.1,0.3,4.2,0.9,6.1c0.5,1.9,1.4,3.6,2.5,5s2.5,2.6,4.3,3.4c1.7,0.8,3.8,1.2,6.3,1.2
				c1.4,0,2.8-0.2,4-0.7c1.3-0.5,2.4-1.1,3.4-2s1.9-1.9,2.6-3c0.7-1.2,1.2-2.5,1.5-3.8h5c-1.2,4.9-3.3,8.4-6.4,10.6
				c-3,2.2-6.9,3.4-11.8,3.4c-3,0-5.6-0.6-7.8-1.8c-2.2-1.2-4-2.8-5.5-4.8c-1.4-2-2.5-4.2-3.2-6.8s-1.1-5.2-1.1-7.9s0.4-5.4,1.1-7.9
				c0.7-2.6,1.9-4.8,3.4-6.8s3.4-3.6,5.6-4.8s4.9-1.8,7.8-1.8c3.4,0,6.2,0.6,8.5,1.7c2.3,1.1,4.2,2.7,5.7,4.8c1.5,2,2.5,4.4,3.2,7.1
				c0.6,2.7,1,5.7,1,8.8H486.2z M512.1,202.6c-0.2-1.9-0.5-3.7-1.1-5.4s-1.4-3.1-2.5-4.3s-2.4-2.1-4-2.8s-3.4-1-5.5-1
				c-2,0-3.7,0.4-5.2,1.1c-1.5,0.7-2.8,1.8-3.8,3c-1,1.3-1.9,2.7-2.5,4.4c-0.6,1.6-1,3.3-1.2,5.1h25.8V202.6z"/>
			<path class="st10" d="M525.4,195.8c0-2.1,0.4-3.8,1.3-5.2c0.9-1.4,2-2.6,3.4-3.4c1.4-0.9,3-1.5,4.7-1.9c1.8-0.4,3.5-0.6,5.3-0.6
				c1.9,0,3.7,0.2,5.4,0.6c1.7,0.4,3.2,1,4.5,1.8c1.3,0.9,2.4,2,3.2,3.4s1.3,3.2,1.5,5.3h-5.2c-0.1-1.3-0.5-2.3-1-3.2
				c-0.6-0.9-1.3-1.5-2.2-2s-1.9-0.9-3.1-1.1c-1.1-0.2-2.3-0.4-3.6-0.4c-1.1,0-2.2,0.1-3.3,0.4c-1.1,0.2-2.1,0.6-2.9,1.1
				c-0.8,0.5-1.5,1.2-2,2s-0.8,1.8-0.8,3c0,1.5,0.5,2.6,1.4,3.4c0.9,0.8,2.2,1.4,3.8,2c1.6,0.5,3.6,1.1,5.9,1.6
				c2.3,0.5,4.8,1.3,7.5,2.2c2.1,0.7,3.7,1.9,5,3.6c1.2,1.7,1.8,3.6,1.8,5.8s-0.5,4.2-1.4,5.8c-1,1.7-2.2,3-3.8,4.1
				s-3.4,1.9-5.4,2.4s-4.1,0.8-6.2,0.8c-1.8,0-3.5-0.2-5.3-0.6c-1.8-0.4-3.4-1.1-4.8-2.1c-1.4-1-2.6-2.2-3.6-3.8
				c-0.9-1.5-1.4-3.4-1.5-5.7h5.2c0.1,1.5,0.5,2.7,1.2,3.7s1.5,1.8,2.5,2.4c1,0.6,2.2,1,3.4,1.3c1.3,0.2,2.6,0.4,4,0.4
				c1.3,0,2.5-0.2,3.8-0.5s2.4-0.8,3.4-1.4c1-0.6,1.8-1.5,2.4-2.5c0.6-1,0.9-2.2,0.9-3.6c0-1.4-0.4-2.6-1.1-3.5
				c-0.7-0.9-1.7-1.6-2.9-2.2c-1.2-0.6-2.6-1-4.1-1.4c-1.5-0.3-3.1-0.7-4.7-1.1c-1.6-0.4-3.2-0.8-4.7-1.3s-2.9-1.1-4.1-1.9
				c-1.2-0.8-2.2-1.8-2.9-3C525.7,199.2,525.4,197.6,525.4,195.8z"/>
			<path class="st10" d="M138.9,339.9v-57.8h5.2v25.4h31.5v-25.4h5.2v57.8h-5.2v-27.6h-31.5v27.6H138.9z"/>
			<path class="st10" d="M194,299.8l13.5,33.6l13.4-33.6h5.2L204,355.3h-5.3l6.1-15.4l-16.6-40.2h5.8V299.8z"/>
			<path class="st10" d="M260.4,334l-0.2-0.3c-1.7,2.4-3.7,4.2-6,5.5c-2.3,1.3-4.9,1.9-7.8,1.9c-3,0-5.5-0.6-7.6-1.9s-3.8-2.9-5.1-5
				s-2.3-4.4-2.9-6.9c-0.6-2.6-0.9-5.1-0.9-7.6c0-2.6,0.3-5.2,0.9-7.7c0.6-2.5,1.5-4.8,2.9-6.8c1.3-2,3-3.6,5.1-4.8
				c2.1-1.2,4.6-1.8,7.6-1.8c2.7,0,5.3,0.6,7.8,1.9c2.6,1.3,4.5,3.1,5.9,5.4l0.2-0.2v-23.5h4.8v48.7c0,1.5,0,3.1,0.1,4.6
				s0.2,3,0.3,4.4h-5L260.4,334z M260.2,318.9c0-2-0.2-4-0.7-5.9s-1.2-3.6-2.3-5.1c-1-1.5-2.4-2.7-4-3.6s-3.6-1.4-6-1.4
				c-2.3,0-4.2,0.5-5.8,1.4c-1.5,1-2.8,2.2-3.7,3.8c-0.9,1.5-1.6,3.3-2,5.2s-0.6,3.8-0.6,5.8c0,1.9,0.2,3.8,0.5,5.9s0.9,3.9,1.8,5.7
				c0.9,1.7,2,3.2,3.5,4.3c1.5,1.1,3.3,1.7,5.6,1.7c2.6,0,4.8-0.5,6.6-1.5s3.2-2.3,4.2-4s1.8-3.5,2.2-5.7
				C260,323.4,260.2,321.2,260.2,318.9z"/>
			<path class="st10" d="M280.8,339.9H276v-31.1c0.1-1.5,0-3.1-0.1-4.6s-0.2-3-0.3-4.4h5l0.2,5.9h0.2c0.7-2,1.9-3.7,3.6-5
				c1.6-1.3,3.5-2,5.5-2.1c0.8-0.1,1.6-0.1,2.4,0c0.8,0,1.6,0.1,2.4,0.1v4.6c-0.5-0.1-1-0.1-1.5-0.2s-1-0.1-1.5-0.1
				c-3.6,0-6.3,1.2-8.1,3.5c-1.8,2.3-2.8,5.4-2.9,9.3v24.1L280.8,339.9L280.8,339.9z"/>
			<path class="st10" d="M317.3,298.6c3.2,0,6,0.6,8.3,1.8c2.3,1.2,4.3,2.8,5.8,4.8s2.7,4.3,3.4,6.8c0.7,2.6,1.1,5.1,1.1,7.8
				c0,2.7-0.4,5.3-1.1,7.8s-1.9,4.8-3.4,6.8s-3.5,3.6-5.8,4.8c-2.3,1.2-5.1,1.8-8.3,1.8c-3.2,0-6-0.6-8.3-1.8
				c-2.3-1.2-4.3-2.8-5.8-4.8s-2.7-4.3-3.4-6.8c-0.7-2.5-1.1-5.1-1.1-7.8c0-2.6,0.4-5.2,1.1-7.8c0.7-2.6,1.9-4.8,3.4-6.8
				s3.5-3.6,5.8-4.8S314.1,298.6,317.3,298.6z M330.8,319.8c0-1.9-0.3-3.8-0.8-5.8s-1.3-3.8-2.4-5.4s-2.5-3-4.2-4
				c-1.7-1.1-3.8-1.6-6.2-1.6c-2.4,0-4.5,0.5-6.2,1.6s-3.1,2.4-4.2,4s-1.9,3.4-2.4,5.4s-0.8,3.9-0.8,5.8s0.3,3.8,0.8,5.8
				s1.3,3.8,2.4,5.4s2.5,3,4.2,4c1.7,1.1,3.8,1.6,6.2,1.6c2.4,0,4.5-0.5,6.2-1.6s3.1-2.4,4.2-4s1.9-3.4,2.4-5.4
				C330.5,323.6,330.8,321.7,330.8,319.8z"/>
			<path class="st10" d="M347.5,321c0.1,2.1,0.3,4.2,0.9,6.1c0.5,1.9,1.4,3.6,2.5,5s2.5,2.6,4.3,3.4c1.7,0.8,3.8,1.2,6.3,1.2
				c1.4,0,2.8-0.2,4-0.7c1.3-0.5,2.4-1.1,3.4-2s1.9-1.9,2.6-3c0.7-1.2,1.2-2.5,1.5-3.8h5c-1.2,4.9-3.3,8.4-6.4,10.6
				c-3,2.2-6.9,3.4-11.8,3.4c-3,0-5.6-0.6-7.8-1.8c-2.2-1.2-4-2.8-5.5-4.8c-1.4-2-2.5-4.2-3.2-6.8c-0.7-2.6-1.1-5.2-1.1-7.9
				s0.4-5.4,1.1-7.9c0.7-2.6,1.9-4.8,3.4-6.8s3.4-3.6,5.6-4.8c2.2-1.2,4.9-1.8,7.8-1.8c3.4,0,6.2,0.6,8.5,1.7s4.2,2.7,5.7,4.8
				c1.5,2,2.5,4.4,3.2,7.1c0.6,2.7,1,5.7,1,8.8L347.5,321L347.5,321z M373.4,316.6c-0.2-1.9-0.5-3.7-1.1-5.4
				c-0.6-1.7-1.4-3.1-2.5-4.3c-1.1-1.2-2.4-2.1-4-2.8c-1.6-0.7-3.4-1-5.5-1c-2,0-3.7,0.4-5.2,1.1s-2.8,1.8-3.8,3
				c-1,1.3-1.9,2.7-2.5,4.4c-0.6,1.6-1,3.3-1.2,5.1h25.8L373.4,316.6L373.4,316.6z"/>
			<path class="st10" d="M392.9,339.9h-4.8v-57.8h4.8V339.9z"/>
			<path class="st10" d="M407.4,321c0.1,2.1,0.3,4.2,0.9,6.1c0.5,1.9,1.4,3.6,2.5,5s2.5,2.6,4.3,3.4c1.7,0.8,3.8,1.2,6.3,1.2
				c1.4,0,2.8-0.2,4-0.7c1.3-0.5,2.4-1.1,3.4-2s1.9-1.9,2.6-3c0.7-1.2,1.2-2.5,1.5-3.8h5c-1.2,4.9-3.3,8.4-6.4,10.6
				c-3,2.2-6.9,3.4-11.8,3.4c-3,0-5.6-0.6-7.8-1.8c-2.2-1.2-4-2.8-5.5-4.8c-1.4-2-2.5-4.2-3.2-6.8c-0.7-2.6-1.1-5.2-1.1-7.9
				s0.4-5.4,1.1-7.9c0.7-2.6,1.9-4.8,3.4-6.8s3.4-3.6,5.6-4.8c2.2-1.2,4.9-1.8,7.8-1.8c3.4,0,6.2,0.6,8.5,1.7s4.2,2.7,5.7,4.8
				c1.5,2,2.5,4.4,3.2,7.1c0.6,2.7,1,5.7,1,8.8L407.4,321L407.4,321z M433.2,316.6c-0.2-1.9-0.5-3.7-1.1-5.4
				c-0.6-1.7-1.4-3.1-2.5-4.3c-1.1-1.2-2.4-2.1-4-2.8c-1.6-0.7-3.4-1-5.5-1c-2,0-3.7,0.4-5.2,1.1s-2.8,1.8-3.8,3
				c-1,1.3-1.9,2.7-2.5,4.4c-0.6,1.6-1,3.3-1.2,5.1h25.8L433.2,316.6L433.2,316.6z"/>
			<path class="st10" d="M473.2,312.1c-0.2-3.1-1.3-5.4-3.1-6.9c-1.9-1.5-4.5-2.2-7.8-2.2c-1.9,0-3.5,0.5-5,1.4s-2.7,2.1-3.7,3.6
				s-1.8,3.3-2.4,5.3s-0.8,4.2-0.8,6.5s0.3,4.5,0.8,6.5c0.6,2.1,1.3,3.9,2.4,5.4c1,1.5,2.3,2.8,3.7,3.7c1.5,0.9,3.1,1.4,5,1.4
				c3.1,0,5.7-0.9,7.7-2.6s3.1-4,3.3-6.8h5.2c-1.3,9.2-6.5,13.8-15.7,13.8c-3,0-5.6-0.6-7.8-1.8c-2.2-1.2-4-2.8-5.5-4.8
				c-1.4-2-2.5-4.2-3.2-6.8c-0.7-2.6-1.1-5.2-1.1-7.9s0.4-5.4,1.1-7.9c0.7-2.6,1.9-4.8,3.4-6.8s3.4-3.6,5.6-4.8
				c2.2-1.2,4.9-1.8,7.8-1.8c2.1,0,4,0.3,5.8,0.9s3.4,1.5,4.8,2.6s2.5,2.6,3.3,4.2c0.8,1.7,1.3,3.6,1.4,5.7L473.2,312.1L473.2,312.1
				z"/>
			<path class="st10" d="M490.1,304.2h-8v-4.4h8v-8.6l4.8-2.1v10.6h9.1v4.4h-9.1V331c-0.1,3.8,1.7,5.7,5.5,5.7c0.7,0,1.5,0,2.2-0.1
				s1.4-0.2,2-0.4v4.2c-0.7,0.2-1.5,0.4-2.4,0.5s-1.7,0.2-2.5,0.2c-2.6,0-4.5-0.4-5.8-1.1s-2.2-1.7-2.8-2.8
				c-0.6-1.2-0.9-2.5-0.9-3.8c-0.1-1.4-0.1-2.8-0.1-4.2L490.1,304.2L490.1,304.2z"/>
			<path class="st10" d="M516.9,339.9h-4.8v-31.1c0.1-1.5,0-3.1-0.1-4.6c-0.1-1.5-0.2-3-0.3-4.4h5l0.2,5.9h0.2c0.7-2,1.9-3.7,3.6-5
				c1.6-1.3,3.5-2,5.5-2.1c0.8-0.1,1.6-0.1,2.4,0c0.8,0,1.6,0.1,2.4,0.1v4.6c-0.5-0.1-1-0.1-1.5-0.2s-1-0.1-1.5-0.1
				c-3.6,0-6.3,1.2-8.1,3.5s-2.8,5.4-2.9,9.3v24.1L516.9,339.9L516.9,339.9z"/>
			<path class="st10" d="M542.8,288.2h-5.6v-6h5.6V288.2z M542.4,299.8V340h-4.8v-40.2H542.4z"/>
			<path class="st10" d="M579.4,312.1c-0.2-3.1-1.3-5.4-3.1-6.9c-1.9-1.5-4.5-2.2-7.8-2.2c-1.9,0-3.5,0.5-5,1.4s-2.7,2.1-3.7,3.6
				s-1.8,3.3-2.4,5.3c-0.6,2-0.8,4.2-0.8,6.5s0.3,4.5,0.8,6.5c0.6,2.1,1.3,3.9,2.4,5.4c1,1.5,2.3,2.8,3.7,3.7c1.5,0.9,3.1,1.4,5,1.4
				c3.1,0,5.7-0.9,7.7-2.6s3.1-4,3.3-6.8h5.2c-1.3,9.2-6.5,13.8-15.7,13.8c-3,0-5.6-0.6-7.8-1.8c-2.2-1.2-4-2.8-5.5-4.8
				c-1.4-2-2.5-4.2-3.2-6.8c-0.7-2.6-1.1-5.2-1.1-7.9s0.4-5.4,1.1-7.9c0.7-2.6,1.9-4.8,3.4-6.8s3.4-3.6,5.6-4.8
				c2.2-1.2,4.9-1.8,7.8-1.8c2.1,0,4,0.3,5.8,0.9s3.4,1.5,4.8,2.6c1.4,1.1,2.5,2.6,3.3,4.2c0.8,1.7,1.3,3.6,1.4,5.7L579.4,312.1
				L579.4,312.1z"/>
			<path class="st10" d="M598.2,288.2h-5.6v-6h5.6V288.2z M597.8,299.8V340H593v-40.2H597.8z"/>
			<path class="st10" d="M612.9,304.2h-8v-4.4h8v-8.6l4.8-2.1v10.6h9.1v4.4h-9.1V331c-0.1,3.8,1.7,5.7,5.5,5.7c0.7,0,1.5,0,2.2-0.1
				s1.4-0.2,2-0.4v4.2c-0.7,0.2-1.5,0.4-2.4,0.5s-1.7,0.2-2.5,0.2c-2.6,0-4.5-0.4-5.8-1.1s-2.2-1.7-2.8-2.8
				c-0.6-1.2-0.9-2.5-0.9-3.8c-0.1-1.4-0.1-2.8-0.1-4.2V304.2z"/>
			<path class="st10" d="M635,299.8l13.5,33.6l13.4-33.6h5.2L645,355.3h-5.3l6.1-15.4l-16.6-40.2h5.8V299.8z"/>
			<path class="st10" d="M138.3,396.2h5.9L176,447h0.2v-50.8h5.2V454h-6.6l-31.1-50h-0.2v49.9h-5.2L138.3,396.2L138.3,396.2z"/>
			<path class="st10" d="M220.8,413.8h4.8v31.1c0,1.5,0,3.1,0.1,4.6s0.2,3,0.3,4.4h-5l-0.2-5.9l-0.2-0.2c-1.4,2.5-3.2,4.3-5.4,5.5
				s-4.6,1.8-7.2,1.8c-2.2,0-4.1-0.3-5.6-0.9s-2.8-1.3-3.9-2.3c-1-0.9-1.9-2-2.5-3.2s-1.1-2.4-1.4-3.6c-0.3-1.2-0.5-2.3-0.6-3.4
				s-0.1-2-0.1-2.8v-25.1h4.8v25.9c0,3.5,0.9,6.2,2.8,8.2c1.9,1.9,4.5,2.9,7.8,2.9c2,0,3.7-0.4,5.1-1.2c1.4-0.8,2.6-1.8,3.6-3.1
				s1.7-2.7,2.1-4.4c0.5-1.7,0.7-3.4,0.7-5.2L220.8,413.8L220.8,413.8z"/>
			<path class="st10" d="M262.6,426.1c-0.2-3.1-1.3-5.4-3.1-6.9c-1.9-1.5-4.5-2.2-7.8-2.2c-1.9,0-3.5,0.5-5,1.4s-2.7,2.1-3.7,3.6
				s-1.8,3.3-2.4,5.3c-0.6,2-0.8,4.2-0.8,6.5s0.3,4.5,0.8,6.5c0.6,2.1,1.3,3.9,2.4,5.4c1,1.5,2.3,2.8,3.7,3.7c1.5,0.9,3.1,1.4,5,1.4
				c3.1,0,5.7-0.9,7.7-2.6s3.1-4,3.3-6.8h5.2c-1.3,9.2-6.5,13.8-15.7,13.8c-3,0-5.6-0.6-7.8-1.8c-2.2-1.2-4-2.8-5.5-4.8
				c-1.4-2-2.5-4.2-3.2-6.8c-0.7-2.6-1.1-5.2-1.1-7.9s0.4-5.4,1.1-7.9c0.7-2.6,1.9-4.8,3.4-6.8s3.4-3.6,5.6-4.8
				c2.2-1.2,4.9-1.8,7.8-1.8c2.1,0,4,0.3,5.8,0.9s3.4,1.5,4.8,2.6s2.5,2.6,3.3,4.2c0.8,1.7,1.3,3.6,1.4,5.7L262.6,426.1L262.6,426.1
				z"/>
			<path class="st10" d="M280.9,453.9h-4.8v-57.8h4.8V453.9z"/>
			<path class="st10" d="M295.4,435c0.1,2.1,0.3,4.2,0.9,6.1c0.5,1.9,1.4,3.6,2.5,5s2.5,2.6,4.3,3.4c1.7,0.8,3.8,1.2,6.3,1.2
				c1.4,0,2.8-0.2,4-0.7c1.3-0.5,2.4-1.1,3.4-2s1.9-1.9,2.6-3c0.7-1.2,1.2-2.5,1.5-3.8h5c-1.2,4.9-3.3,8.4-6.4,10.6
				c-3,2.2-6.9,3.4-11.8,3.4c-3,0-5.6-0.6-7.8-1.8c-2.2-1.2-4-2.8-5.5-4.8c-1.4-2-2.5-4.2-3.2-6.8c-0.7-2.6-1.1-5.2-1.1-7.9
				s0.4-5.4,1.1-7.9c0.7-2.6,1.9-4.8,3.4-6.8s3.4-3.6,5.6-4.8c2.2-1.2,4.9-1.8,7.8-1.8c3.4,0,6.2,0.6,8.5,1.7s4.2,2.7,5.7,4.8
				c1.5,2,2.5,4.4,3.2,7.1c0.6,2.7,1,5.7,1,8.8L295.4,435L295.4,435z M321.2,430.6c-0.2-1.9-0.5-3.7-1.1-5.4
				c-0.6-1.7-1.4-3.1-2.5-4.3c-1.1-1.2-2.4-2.1-4-2.8c-1.6-0.7-3.4-1-5.5-1c-2,0-3.7,0.4-5.2,1.1s-2.8,1.8-3.8,3
				c-1,1.3-1.9,2.7-2.5,4.4c-0.6,1.6-1,3.3-1.2,5.1h25.8L321.2,430.6L321.2,430.6z"/>
			<path class="st10" d="M358.6,425.6c-0.3-3.3-1.2-5.6-2.8-6.8c-1.6-1.2-3.8-1.8-6.7-1.8c-1.3,0-2.5,0.1-3.6,0.3
				c-1.1,0.2-2.1,0.6-3,1.1s-1.6,1.3-2.2,2.2c-0.6,0.9-0.9,2-1.1,3.4h-5.1c0.3-2.1,0.9-3.8,1.8-5.3s2-2.6,3.3-3.5s2.8-1.6,4.5-2
				s3.5-0.6,5.4-0.6c4.4,0,7.9,1.1,10.5,3.2s3.8,5.5,3.8,10.1v19c-0.1,1.5,0,3.1,0.1,4.6s0.2,3,0.3,4.4h-5l-0.2-5.9h-0.2l-0.2,0.6
				c-0.4,0.9-1.1,1.7-1.9,2.4c-0.9,0.8-1.8,1.5-3,2.1s-2.3,1.1-3.7,1.5c-1.3,0.4-2.7,0.6-4,0.6c-1.9,0-3.6-0.3-5.2-0.8
				c-1.6-0.6-3-1.4-4.2-2.4c-1.2-1.1-2.1-2.4-2.8-3.9c-0.7-1.5-1-3.3-1-5.2c0-2.7,0.7-5.1,2.2-7.1s3.4-3.5,5.8-4.5
				c1.3-0.6,2.8-1,4.3-1.2s3.1-0.4,4.6-0.4c1.6-0.1,3.1-0.1,4.7,0c1.6,0,3.1,0,4.5-0.1v-4L358.6,425.6L358.6,425.6z M337.5,442.7
				c0,2.7,0.9,4.7,2.7,6c1.8,1.3,3.9,2,6.4,2c2.6,0,4.7-0.5,6.4-1.5c1.6-1,2.9-2.3,3.8-3.9s1.4-3.4,1.7-5.5c0.2-2.1,0.3-4.1,0.2-6.2
				c-1.7,0.1-3.8,0.1-6.2,0.1s-4.7,0.2-6.9,0.7c-2.2,0.5-4.1,1.3-5.6,2.6C338.3,438.3,337.5,440.2,337.5,442.7z"/>
			<path class="st10" d="M379.4,453.9h-4.8v-31.1c0.1-1.5,0-3.1-0.1-4.6s-0.2-3-0.3-4.4h5l0.2,5.9h0.2c0.7-2,1.9-3.7,3.6-5
				c1.6-1.3,3.5-2,5.5-2.1c0.8-0.1,1.6-0.1,2.4,0c0.8,0,1.6,0.1,2.4,0.1v4.6c-0.5-0.1-1-0.1-1.5-0.2s-1-0.1-1.5-0.1
				c-3.6,0-6.3,1.2-8.1,3.5c-1.8,2.3-2.8,5.4-2.9,9.3v24.1L379.4,453.9L379.4,453.9z"/>
			<path class="st10" d="M423.9,435c0.1,2.1,0.3,4.2,0.9,6.1c0.5,1.9,1.4,3.6,2.5,5s2.5,2.6,4.3,3.4c1.7,0.8,3.8,1.2,6.3,1.2
				c1.4,0,2.8-0.2,4-0.7c1.3-0.5,2.4-1.1,3.4-2s1.9-1.9,2.6-3c0.7-1.2,1.2-2.5,1.5-3.8h5c-1.2,4.9-3.3,8.4-6.4,10.6
				c-3,2.2-6.9,3.4-11.8,3.4c-3,0-5.6-0.6-7.8-1.8c-2.2-1.2-4-2.8-5.5-4.8c-1.4-2-2.5-4.2-3.2-6.8c-0.7-2.6-1.1-5.2-1.1-7.9
				s0.4-5.4,1.1-7.9c0.7-2.6,1.9-4.8,3.4-6.8s3.4-3.6,5.6-4.8c2.2-1.2,4.9-1.8,7.8-1.8c3.4,0,6.2,0.6,8.5,1.7s4.2,2.7,5.7,4.8
				c1.5,2,2.5,4.4,3.2,7.1c0.6,2.7,1,5.7,1,8.8L423.9,435L423.9,435z M449.8,430.6c-0.2-1.9-0.5-3.7-1.1-5.4
				c-0.6-1.7-1.4-3.1-2.5-4.3c-1.1-1.2-2.4-2.1-4-2.8c-1.6-0.7-3.4-1-5.5-1c-2,0-3.7,0.4-5.2,1.1s-2.8,1.8-3.8,3
				c-1,1.3-1.9,2.7-2.5,4.4c-0.6,1.6-1,3.3-1.2,5.1h25.8L449.8,430.6L449.8,430.6z"/>
			<path class="st10" d="M469.2,453.9h-4.8v-31.1c0-1.5,0-3.1-0.1-4.6s-0.2-3-0.3-4.4h5l0.2,5.9l0.2,0.2c1.4-2.5,3.2-4.3,5.4-5.5
				c2.2-1.2,4.6-1.8,7.2-1.8c2.2,0,4.1,0.3,5.6,0.9s2.8,1.3,3.9,2.3c1,0.9,1.9,2,2.5,3.2s1.1,2.4,1.4,3.6s0.5,2.4,0.6,3.5
				s0.1,2.1,0.1,2.8V454h-4.8v-26c0-3.5-0.9-6.2-2.8-8.2c-1.9-1.9-4.5-2.9-7.8-2.9c-2,0-3.7,0.4-5.1,1.2c-1.4,0.8-2.6,1.8-3.6,3.1
				c-1,1.3-1.7,2.7-2.1,4.4c-0.5,1.7-0.7,3.4-0.7,5.2L469.2,453.9L469.2,453.9z"/>
			<path class="st10" d="M510.5,435c0.1,2.1,0.3,4.2,0.9,6.1c0.5,1.9,1.4,3.6,2.5,5c1.1,1.4,2.5,2.6,4.3,3.4
				c1.7,0.8,3.8,1.2,6.3,1.2c1.4,0,2.8-0.2,4-0.7c1.3-0.5,2.4-1.1,3.4-2s1.9-1.9,2.6-3c0.7-1.2,1.2-2.5,1.5-3.8h5
				c-1.2,4.9-3.3,8.4-6.4,10.6c-3,2.2-6.9,3.4-11.8,3.4c-3,0-5.6-0.6-7.8-1.8c-2.2-1.2-4-2.8-5.5-4.8c-1.4-2-2.5-4.2-3.2-6.8
				c-0.7-2.6-1.1-5.2-1.1-7.9s0.4-5.4,1.1-7.9c0.7-2.6,1.9-4.8,3.4-6.8s3.4-3.6,5.6-4.8c2.2-1.2,4.9-1.8,7.8-1.8
				c3.4,0,6.2,0.6,8.5,1.7s4.2,2.7,5.7,4.8c1.5,2,2.5,4.4,3.2,7.1c0.6,2.7,1,5.7,1,8.8L510.5,435L510.5,435z M536.3,430.6
				c-0.2-1.9-0.5-3.7-1.1-5.4c-0.6-1.7-1.4-3.1-2.5-4.3c-1.1-1.2-2.4-2.1-4-2.8c-1.6-0.7-3.4-1-5.5-1c-2,0-3.7,0.4-5.2,1.1
				s-2.8,1.8-3.8,3c-1,1.3-1.9,2.7-2.5,4.4c-0.6,1.6-1,3.3-1.2,5.1h25.8V430.6z"/>
			<path class="st10" d="M555.8,453.9H551v-31.1c0.1-1.5,0-3.1-0.1-4.6s-0.2-3-0.3-4.4h5l0.2,5.9h0.2c0.7-2,1.9-3.7,3.6-5
				c1.6-1.3,3.5-2,5.5-2.1c0.8-0.1,1.6-0.1,2.4,0c0.8,0,1.6,0.1,2.4,0.1v4.6c-0.5-0.1-1-0.1-1.5-0.2s-1-0.1-1.5-0.1
				c-3.6,0-6.3,1.2-8.1,3.5s-2.8,5.4-2.9,9.3v24.1L555.8,453.9L555.8,453.9z"/>
			<path class="st10" d="M604.3,413.8h5c-0.1,1.4-0.2,2.9-0.3,4.4s-0.1,3.1-0.1,4.6v24.1c0,2,0,4-0.1,6s-0.3,3.9-0.8,5.7
				c-0.5,1.8-1.3,3.5-2.5,5c-1.1,1.5-2.8,2.8-5.1,3.8c-1.6,0.7-3.1,1.2-4.4,1.5c-1.3,0.2-2.9,0.4-4.8,0.4c-1.8,0-3.7-0.2-5.6-0.5
				c-1.9-0.3-3.6-0.9-5.1-1.8c-1.5-0.8-2.8-1.9-3.8-3.3s-1.5-3.1-1.5-5.2h5.2c0.2,1.2,0.6,2.2,1.3,3s1.6,1.5,2.7,2
				c1.1,0.5,2.2,0.9,3.5,1.1s2.6,0.3,3.8,0.3c1.5,0,3-0.3,4.5-0.8c1.4-0.5,2.7-1.3,3.8-2.2c1.1-1,2-2.1,2.7-3.5s1.1-2.9,1.1-4.6
				v-7.5h-0.2c-1.2,2.4-3,4.3-5.4,5.6c-2.5,1.3-5,2-7.6,2c-3,0-5.6-0.5-7.8-1.6s-3.9-2.5-5.4-4.4c-1.4-1.8-2.5-4-3.1-6.4
				c-0.7-2.5-1-5.1-1-7.8c0-2.7,0.3-5.3,1-7.9c0.6-2.5,1.6-4.8,3-6.7s3.1-3.5,5.3-4.6c2.2-1.2,4.8-1.8,7.8-1.8c2.9,0,5.5,0.7,7.6,2
				s4,3.1,5.6,5.5l0.2-0.3L604.3,413.8z M604.1,433c0-1.9-0.3-3.8-0.8-5.7c-0.5-1.9-1.3-3.6-2.4-5.1c-1.1-1.5-2.4-2.8-4-3.7
				c-1.6-1-3.5-1.4-5.6-1.4c-2.2,0-4.1,0.5-5.6,1.5c-1.6,1-2.9,2.3-3.8,3.8c-1,1.6-1.7,3.3-2.2,5.2s-0.7,3.8-0.7,5.6
				c0,1.9,0.2,3.8,0.7,5.7s1.2,3.7,2.2,5.2s2.3,2.8,3.9,3.8c1.6,1,3.5,1.5,5.7,1.5c2.3,0,4.3-0.5,5.9-1.4c1.6-1,2.9-2.2,4-3.8
				c1-1.6,1.7-3.3,2.2-5.3C603.8,436.9,604.1,434.9,604.1,433z"/>
			<path class="st10" d="M619.8,413.8l13.5,33.6l13.4-33.6h5.2l-22.2,55.5h-5.3l6.1-15.4l-16.6-40.2h5.9L619.8,413.8L619.8,413.8z"
				/>
		</g>
		<rect x="859" y="52" class="st11" width="70" height="70"/>
		<rect x="858" y="161" class="st12" width="70" height="70"/>
		<g>
			<path class="st10" d="M964.3,55.2h5.9L1002,106h0.2V55.2h5.2V113h-6.6l-31.1-50h-0.2v49.9h-5.2L964.3,55.2L964.3,55.2z"/>
			<path class="st10" d="M1042.6,84.6c-0.3-3.3-1.2-5.6-2.8-6.8c-1.6-1.2-3.8-1.8-6.7-1.8c-1.3,0-2.5,0.1-3.6,0.3
				c-1.1,0.2-2.1,0.6-3,1.1s-1.6,1.3-2.2,2.2c-0.6,0.9-0.9,2-1.1,3.4h-5.1c0.3-2.1,0.9-3.8,1.8-5.3s2-2.6,3.3-3.5
				c1.3-0.9,2.8-1.6,4.5-2s3.5-0.6,5.4-0.6c4.4,0,7.9,1.1,10.5,3.2s3.8,5.5,3.8,10.1v19c-0.1,1.5,0,3.1,0.1,4.6s0.2,3,0.3,4.4h-5
				l-0.2-5.9h-0.2l-0.2,0.6c-0.4,0.9-1.1,1.7-1.9,2.4c-0.9,0.8-1.8,1.5-3,2.1c-1.1,0.6-2.3,1.1-3.7,1.5c-1.3,0.4-2.7,0.6-4,0.6
				c-1.9,0-3.6-0.3-5.2-0.8c-1.6-0.6-3-1.4-4.2-2.4c-1.2-1.1-2.1-2.4-2.8-3.9s-1-3.3-1-5.2c0-2.7,0.7-5.1,2.2-7.1s3.4-3.5,5.8-4.5
				c1.3-0.6,2.8-1,4.3-1.2s3.1-0.4,4.6-0.4c1.6-0.1,3.1-0.1,4.7,0c1.6,0,3.1,0,4.5-0.1L1042.6,84.6L1042.6,84.6z M1021.6,101.7
				c0,2.7,0.9,4.7,2.7,6c1.8,1.3,3.9,2,6.4,2c2.6,0,4.7-0.5,6.4-1.5c1.6-1,2.9-2.3,3.8-3.9s1.4-3.4,1.7-5.5c0.2-2.1,0.3-4.1,0.2-6.2
				c-1.7,0.1-3.8,0.1-6.2,0.1c-2.4,0-4.7,0.2-6.9,0.7c-2.2,0.5-4.1,1.3-5.6,2.6S1021.6,99.2,1021.6,101.7z"/>
			<path class="st10" d="M1062.2,77.2h-8v-4.4h8v-8.6l4.8-2.1v10.6h9.1v4.4h-9.1V104c-0.1,3.8,1.7,5.7,5.5,5.7c0.7,0,1.5,0,2.2-0.1
				s1.4-0.2,2-0.4v4.2c-0.7,0.2-1.5,0.4-2.4,0.5s-1.7,0.2-2.5,0.2c-2.6,0-4.5-0.4-5.8-1.1s-2.2-1.7-2.8-2.8
				c-0.6-1.2-0.9-2.5-0.9-3.8c-0.1-1.4-0.1-2.8-0.1-4.2L1062.2,77.2L1062.2,77.2z"/>
			<path class="st10" d="M1111,72.8h4.8v31.1c0,1.5,0,3.1,0.1,4.6s0.2,3,0.3,4.4h-5l-0.2-5.9l-0.2-0.2c-1.4,2.5-3.2,4.3-5.4,5.5
				c-2.2,1.2-4.6,1.8-7.2,1.8c-2.2,0-4.1-0.3-5.6-0.9s-2.8-1.3-3.9-2.3c-1-0.9-1.9-2-2.5-3.2s-1.1-2.4-1.4-3.6s-0.5-2.3-0.6-3.4
				s-0.1-2-0.1-2.8V72.8h4.8v25.9c0,3.5,0.9,6.2,2.8,8.2c1.9,1.9,4.5,2.9,7.8,2.9c2,0,3.7-0.4,5.1-1.2c1.4-0.8,2.6-1.8,3.6-3.1
				s1.7-2.7,2.1-4.4s0.7-3.4,0.7-5.2L1111,72.8L1111,72.8z"/>
			<path class="st10" d="M1132.2,112.9h-4.8V81.8c0.1-1.5,0-3.1-0.1-4.6s-0.2-3-0.3-4.4h5l0.2,5.9h0.2c0.7-2,1.9-3.7,3.6-5
				c1.6-1.3,3.5-2,5.5-2.1c0.8-0.1,1.6-0.1,2.4,0c0.8,0,1.6,0.1,2.4,0.1v4.6c-0.5-0.1-1-0.1-1.5-0.2s-1-0.1-1.5-0.1
				c-3.6,0-6.3,1.2-8.1,3.5c-1.8,2.3-2.8,5.4-2.9,9.3L1132.2,112.9L1132.2,112.9z"/>
			<path class="st10" d="M1175.6,84.6c-0.3-3.3-1.2-5.6-2.8-6.8c-1.6-1.2-3.8-1.8-6.7-1.8c-1.3,0-2.5,0.1-3.6,0.3
				c-1.1,0.2-2.1,0.6-3,1.1s-1.6,1.3-2.2,2.2c-0.6,0.9-0.9,2-1.1,3.4h-5.1c0.3-2.1,0.9-3.8,1.8-5.3c0.9-1.4,2-2.6,3.3-3.5
				s2.8-1.6,4.5-2s3.5-0.6,5.4-0.6c4.4,0,7.9,1.1,10.5,3.2s3.8,5.5,3.8,10.1v19c-0.1,1.5,0,3.1,0.1,4.6s0.2,3,0.3,4.4h-5l-0.2-5.9
				h-0.2l-0.2,0.6c-0.4,0.9-1.1,1.7-1.9,2.4c-0.9,0.8-1.8,1.5-3,2.1s-2.3,1.1-3.7,1.5c-1.3,0.4-2.7,0.6-4,0.6
				c-1.9,0-3.6-0.3-5.2-0.8c-1.6-0.6-3-1.4-4.2-2.4c-1.2-1.1-2.1-2.4-2.8-3.9c-0.7-1.5-1-3.3-1-5.2c0-2.7,0.7-5.1,2.2-7.1
				s3.4-3.5,5.8-4.5c1.3-0.6,2.8-1,4.3-1.2s3.1-0.4,4.6-0.4c1.6-0.1,3.1-0.1,4.7,0c1.6,0,3.1,0,4.5-0.1L1175.6,84.6L1175.6,84.6z
				 M1154.6,101.7c0,2.7,0.9,4.7,2.7,6c1.8,1.3,3.9,2,6.4,2c2.6,0,4.7-0.5,6.4-1.5c1.6-1,2.9-2.3,3.8-3.9s1.4-3.4,1.7-5.5
				c0.2-2.1,0.3-4.1,0.2-6.2c-1.7,0.1-3.8,0.1-6.2,0.1s-4.7,0.2-6.9,0.7c-2.2,0.5-4.1,1.3-5.6,2.6
				C1155.3,97.3,1154.6,99.2,1154.6,101.7z"/>
			<path class="st10" d="M1196.6,112.9h-4.8V55.2h4.8V112.9z"/>
			<path class="st10" d="M1257.2,72.8h5c-0.1,1.4-0.2,2.9-0.3,4.4s-0.1,3.1-0.1,4.6v24.1c0,2,0,4-0.1,6s-0.3,3.9-0.8,5.7
				c-0.5,1.8-1.3,3.5-2.5,5c-1.1,1.5-2.8,2.8-5.1,3.8c-1.6,0.7-3.1,1.2-4.4,1.5c-1.3,0.2-2.9,0.4-4.8,0.4c-1.8,0-3.7-0.2-5.6-0.5
				s-3.6-0.9-5.1-1.8c-1.5-0.8-2.8-1.9-3.8-3.3s-1.5-3.1-1.5-5.2h5.2c0.2,1.2,0.6,2.2,1.3,3c0.7,0.8,1.6,1.5,2.7,2s2.2,0.9,3.5,1.1
				s2.6,0.3,3.8,0.3c1.5,0,3-0.3,4.5-0.8c1.4-0.5,2.7-1.3,3.8-2.2c1.1-1,2-2.1,2.7-3.5s1.1-2.9,1.1-4.6v-7.5h-0.2
				c-1.2,2.4-3,4.3-5.4,5.6c-2.5,1.3-5,2-7.6,2c-3,0-5.6-0.5-7.8-1.6c-2.2-1.1-3.9-2.5-5.4-4.4c-1.4-1.8-2.5-4-3.1-6.4
				c-0.7-2.5-1-5.1-1-7.8c0-2.7,0.3-5.3,1-7.9c0.6-2.5,1.6-4.8,3-6.7s3.1-3.5,5.3-4.6c2.2-1.2,4.8-1.8,7.8-1.8c2.9,0,5.5,0.7,7.6,2
				s4,3.1,5.6,5.5l0.2-0.3L1257.2,72.8z M1257,92c0-1.9-0.3-3.8-0.8-5.7c-0.5-1.9-1.3-3.6-2.4-5.1s-2.4-2.8-4-3.7s-3.5-1.4-5.6-1.4
				c-2.2,0-4.1,0.5-5.6,1.5c-1.6,1-2.9,2.3-3.8,3.8c-1,1.6-1.7,3.3-2.2,5.2s-0.7,3.8-0.7,5.6c0,1.9,0.2,3.8,0.7,5.7s1.2,3.7,2.2,5.2
				s2.3,2.8,3.9,3.8s3.5,1.5,5.7,1.5c2.3,0,4.3-0.5,5.9-1.4s2.9-2.2,4-3.8c1-1.6,1.7-3.3,2.2-5.3C1256.7,95.9,1257,93.9,1257,92z"/>
			<path class="st10" d="M1295.3,84.6c-0.3-3.3-1.2-5.6-2.8-6.8c-1.6-1.2-3.8-1.8-6.7-1.8c-1.3,0-2.5,0.1-3.6,0.3
				c-1.1,0.2-2.1,0.6-3,1.1s-1.6,1.3-2.2,2.2c-0.6,0.9-0.9,2-1.1,3.4h-5.1c0.3-2.1,0.9-3.8,1.8-5.3s2-2.6,3.3-3.5s2.8-1.6,4.5-2
				s3.5-0.6,5.4-0.6c4.4,0,7.9,1.1,10.5,3.2s3.8,5.5,3.8,10.1v19c-0.1,1.5,0,3.1,0.1,4.6s0.2,3,0.3,4.4h-5l-0.2-5.9h-0.2l-0.2,0.6
				c-0.4,0.9-1.1,1.7-1.9,2.4c-0.9,0.8-1.8,1.5-3,2.1c-1.1,0.6-2.3,1.1-3.7,1.5c-1.3,0.4-2.7,0.6-4,0.6c-1.9,0-3.6-0.3-5.2-0.8
				c-1.6-0.6-3-1.4-4.2-2.4c-1.2-1.1-2.1-2.4-2.8-3.9c-0.7-1.5-1-3.3-1-5.2c0-2.7,0.7-5.1,2.2-7.1s3.4-3.5,5.8-4.5
				c1.3-0.6,2.8-1,4.3-1.2s3.1-0.4,4.6-0.4c1.6-0.1,3.1-0.1,4.7,0c1.6,0,3.1,0,4.5-0.1L1295.3,84.6L1295.3,84.6z M1274.2,101.7
				c0,2.7,0.9,4.7,2.7,6c1.8,1.3,3.9,2,6.4,2c2.6,0,4.7-0.5,6.4-1.5c1.6-1,2.9-2.3,3.8-3.9s1.4-3.4,1.7-5.5c0.2-2.1,0.3-4.1,0.2-6.2
				c-1.7,0.1-3.8,0.1-6.2,0.1c-2.4,0-4.7,0.2-6.9,0.7c-2.2,0.5-4.1,1.3-5.6,2.6C1275,97.3,1274.2,99.2,1274.2,101.7z"/>
			<path class="st10" d="M1310,82.8c0-2.1,0.4-3.8,1.3-5.2c0.9-1.4,2-2.6,3.4-3.4c1.4-0.9,3-1.5,4.7-1.9c1.8-0.4,3.5-0.6,5.3-0.6
				c1.9,0,3.7,0.2,5.4,0.6s3.2,1,4.5,1.8c1.3,0.9,2.4,2,3.2,3.4c0.8,1.4,1.3,3.2,1.5,5.3h-5.2c-0.1-1.3-0.5-2.3-1-3.2
				c-0.6-0.9-1.3-1.5-2.2-2c-0.9-0.5-1.9-0.9-3.1-1.1c-1.1-0.2-2.3-0.4-3.6-0.4c-1.1,0-2.2,0.1-3.3,0.4c-1.1,0.2-2.1,0.6-2.9,1.1
				s-1.5,1.2-2,2s-0.8,1.8-0.8,3c0,1.5,0.5,2.6,1.4,3.4s2.2,1.4,3.8,2c1.6,0.5,3.6,1.1,5.9,1.6s4.8,1.3,7.5,2.2
				c2.1,0.7,3.7,1.9,5,3.6c1.2,1.7,1.8,3.6,1.8,5.8c0,2.2-0.5,4.2-1.4,5.8c-1,1.7-2.2,3-3.8,4.1c-1.6,1.1-3.4,1.9-5.4,2.4
				s-4.1,0.8-6.2,0.8c-1.8,0-3.5-0.2-5.3-0.6s-3.4-1.1-4.8-2.1s-2.6-2.2-3.6-3.8c-0.9-1.5-1.4-3.4-1.5-5.7h5.2
				c0.1,1.5,0.5,2.7,1.2,3.7s1.5,1.8,2.5,2.4s2.2,1,3.4,1.3c1.3,0.2,2.6,0.4,4,0.4c1.3,0,2.5-0.2,3.8-0.5s2.4-0.8,3.4-1.4
				s1.8-1.5,2.4-2.5s0.9-2.2,0.9-3.6s-0.4-2.6-1.1-3.5s-1.7-1.6-2.9-2.2c-1.2-0.6-2.6-1-4.1-1.4c-1.5-0.3-3.1-0.7-4.7-1.1
				s-3.2-0.8-4.7-1.3s-2.9-1.1-4.1-1.9s-2.2-1.8-2.9-3C1310.4,86.2,1310,84.6,1310,82.8z"/>
			<path class="st10" d="M1013.8,198c0,4.5-0.6,8.6-1.7,12.3c-1.1,3.7-2.8,6.9-5,9.5s-4.9,4.7-8.1,6.1c-3.2,1.4-6.9,2.2-11,2.2
				c-4.2,0-7.8-0.7-11-2.2c-3.2-1.4-5.9-3.5-8.1-6.1c-2.2-2.6-3.8-5.8-5-9.5c-1.1-3.7-1.7-7.8-1.7-12.3s0.6-8.6,1.7-12.3
				c1.1-3.7,2.8-6.9,5-9.5s4.9-4.7,8.1-6.1c3.2-1.4,6.9-2.2,11-2.2c4.2,0,7.8,0.7,11,2.2c3.2,1.4,5.9,3.5,8.1,6.1
				c2.2,2.6,3.8,5.8,5,9.5C1013.3,189.5,1013.8,193.6,1013.8,198z M967.9,198c0,3.1,0.4,6.2,1.1,9.3c0.7,3,1.9,5.7,3.6,8.1
				c1.6,2.4,3.7,4.3,6.2,5.7s5.6,2.2,9.2,2.2c3.6,0,6.6-0.7,9.2-2.2c2.6-1.4,4.7-3.3,6.3-5.7s2.8-5.1,3.6-8.1c0.7-3,1.1-6.1,1.1-9.3
				c0-3.1-0.4-6.2-1.1-9.3c-0.7-3-1.9-5.7-3.6-8.1c-1.6-2.4-3.7-4.3-6.3-5.7s-5.6-2.2-9.2-2.2c-3.6,0-6.7,0.7-9.2,2.2
				c-2.5,1.4-4.6,3.3-6.2,5.7c-1.6,2.4-2.8,5.1-3.6,8.1C968.3,191.8,967.9,194.9,967.9,198z"/>
			<path class="st10" d="M1029.7,175.2h-5.6v-6h5.6V175.2z M1029.3,186.8V227h-4.8v-40.2H1029.3z"/>
			<path class="st10" d="M1045.8,226.9h-4.8v-57.8h4.8V226.9z"/>
		</g>
	</g>
	<g id="text">
		<g>
			<path class="st10" d="M1824.2,65.3c2.4-1,4.7-2.2,6.8-3.7c2.1-1.5,4.1-3.2,5.9-5h5V112h-5.2V62.2c-1.9,1.8-3.9,3.3-6,4.7
				s-4.3,2.6-6.5,3.6L1824.2,65.3L1824.2,65.3z"/>
			<path class="st10" d="M1885.9,99.1h-26v-5l24.3-37.4h6.9v38.2h8.9v4.3h-8.9V112h-5.2L1885.9,99.1L1885.9,99.1z M1885.9,61.8h-0.2
				l-21.4,33h21.6V61.8z"/>
			<path class="st10" d="M1923.7,55.4c3.8,0,6.9,0.8,9.2,2.5c2.4,1.7,4.2,3.9,5.6,6.6s2.3,5.8,2.8,9.3s0.8,6.9,0.8,10.4
				s-0.3,7-0.8,10.4s-1.4,6.5-2.8,9.3c-1.4,2.7-3.2,5-5.6,6.6c-2.4,1.7-5.5,2.5-9.2,2.5c-3.8,0-6.9-0.8-9.2-2.5
				c-2.4-1.7-4.2-3.9-5.6-6.6s-2.3-5.8-2.8-9.3c-0.5-3.4-0.8-6.9-0.8-10.4s0.3-7,0.8-10.4s1.4-6.5,2.8-9.3c1.4-2.7,3.2-5,5.6-6.6
				C1916.8,56.3,1919.9,55.4,1923.7,55.4z M1923.7,60.2c-2.9,0-5.3,0.9-7,2.6c-1.7,1.7-3,3.9-3.8,6.4c-0.9,2.5-1.4,5.1-1.6,7.9
				c-0.2,2.7-0.4,5.2-0.4,7.2c0,2.1,0.1,4.5,0.4,7.2c0.2,2.7,0.8,5.4,1.6,7.9c0.9,2.5,2.1,4.6,3.8,6.4c1.7,1.7,4,2.6,7,2.6
				c2.9,0,5.3-0.9,7-2.6s3-3.9,3.8-6.4c0.9-2.5,1.4-5.1,1.6-7.9c0.2-2.7,0.4-5.2,0.4-7.2c0-2.1-0.1-4.5-0.4-7.2
				c-0.2-2.7-0.8-5.4-1.6-7.9c-0.9-2.5-2.1-4.6-3.8-6.4C1928.9,61.1,1926.6,60.2,1923.7,60.2z"/>
			<path class="st10" d="M1967,55.4c3.8,0,6.9,0.8,9.2,2.5c2.4,1.7,4.2,3.9,5.6,6.6s2.3,5.8,2.8,9.3s0.8,6.9,0.8,10.4
				s-0.3,7-0.8,10.4s-1.4,6.5-2.8,9.3c-1.4,2.7-3.2,5-5.6,6.6c-2.4,1.7-5.5,2.5-9.2,2.5c-3.8,0-6.9-0.8-9.2-2.5
				c-2.4-1.7-4.2-3.9-5.6-6.6s-2.3-5.8-2.8-9.3c-0.5-3.4-0.8-6.9-0.8-10.4s0.3-7,0.8-10.4s1.4-6.5,2.8-9.3c1.4-2.7,3.2-5,5.6-6.6
				S1963.2,55.4,1967,55.4z M1967,60.2c-2.9,0-5.3,0.9-7,2.6c-1.7,1.7-3,3.9-3.8,6.4c-0.9,2.5-1.4,5.1-1.6,7.9
				c-0.2,2.7-0.4,5.2-0.4,7.2c0,2.1,0.1,4.5,0.4,7.2c0.2,2.7,0.8,5.4,1.6,7.9c0.9,2.5,2.1,4.6,3.8,6.4c1.7,1.7,4,2.6,7,2.6
				c2.9,0,5.3-0.9,7-2.6s3-3.9,3.8-6.4c0.9-2.5,1.4-5.1,1.6-7.9c0.2-2.7,0.4-5.2,0.4-7.2c0-2.1-0.1-4.5-0.4-7.2
				c-0.2-2.7-0.8-5.4-1.6-7.9c-0.9-2.5-2.1-4.6-3.8-6.4C1972.2,61.1,1969.9,60.2,1967,60.2z"/>
			<path class="st10" d="M1824.2,203.3c2.4-1,4.7-2.2,6.8-3.7c2.1-1.5,4.1-3.2,5.9-5h5V250h-5.2v-49.8c-1.9,1.8-3.9,3.3-6,4.7
				s-4.3,2.6-6.5,3.6L1824.2,203.3L1824.2,203.3z"/>
			<path class="st10" d="M1876.6,218.6c1.8,0.2,3.5,0.2,5.4-0.1c1.8-0.3,3.5-0.9,4.9-1.7c1.5-0.8,2.7-1.9,3.6-3.4
				c0.9-1.4,1.4-3.2,1.4-5.2c0-1.6-0.3-3-1-4.3s-1.6-2.3-2.7-3.1s-2.4-1.5-3.9-1.9c-1.5-0.5-3-0.7-4.6-0.7c-3.5,0-6.3,0.9-8.4,2.6
				c-2.1,1.8-3.3,4.2-3.7,7.4h-5.6c0-2.3,0.5-4.4,1.4-6.3c1-1.8,2.2-3.4,3.8-4.7c1.6-1.3,3.4-2.3,5.4-2.9c2-0.7,4.1-1,6.3-1
				c2.3,0,4.6,0.3,6.8,0.8c2.2,0.6,4.2,1.5,5.9,2.7c1.7,1.2,3.1,2.8,4.2,4.7s1.6,4.2,1.6,6.9c0,1.7-0.3,3.3-0.9,4.6
				c-0.6,1.4-1.4,2.6-2.4,3.6s-2.2,1.9-3.6,2.6s-2.8,1.2-4.4,1.6v0.2c1.8,0.4,3.4,1,4.9,1.8s2.8,1.8,3.8,3c1.1,1.2,1.9,2.6,2.5,4.1
				s0.9,3.3,0.9,5.1c0,2.6-0.5,4.9-1.6,6.9s-2.5,3.6-4.4,5c-1.8,1.4-3.9,2.4-6.1,3.1c-2.3,0.7-4.5,1-6.8,1c-2.5,0-4.8-0.3-6.9-1
				c-2.2-0.7-4.1-1.7-5.7-3c-1.7-1.3-3-2.9-4-4.9s-1.5-4.3-1.6-7h5.6c0,1.7,0.4,3.2,1.1,4.6c0.7,1.4,1.7,2.5,2.8,3.5
				c1.2,1,2.5,1.7,4,2.2s3,0.8,4.6,0.8c1.8,0,3.5-0.2,5.2-0.7s3.1-1.2,4.3-2.2c1.2-1,2.2-2.2,2.9-3.7c0.7-1.5,1.1-3.2,1.1-5.2
				c0-2.2-0.5-4.1-1.4-5.6c-1-1.5-2.2-2.7-3.8-3.6c-1.5-0.9-3.3-1.5-5.2-1.7c-1.9-0.3-3.8-0.3-5.8,0L1876.6,218.6L1876.6,218.6z"/>
			<path class="st10" d="M1923.7,193.4c3.8,0,6.9,0.8,9.2,2.5c2.4,1.7,4.2,3.9,5.6,6.6c1.4,2.7,2.3,5.8,2.8,9.3s0.8,6.9,0.8,10.4
				s-0.3,7-0.8,10.4s-1.4,6.5-2.8,9.3c-1.4,2.7-3.2,5-5.6,6.6c-2.4,1.7-5.5,2.5-9.2,2.5c-3.8,0-6.9-0.8-9.2-2.5
				c-2.4-1.7-4.2-3.9-5.6-6.6c-1.4-2.7-2.3-5.8-2.8-9.3c-0.5-3.4-0.8-6.9-0.8-10.4s0.3-7,0.8-10.4s1.4-6.5,2.8-9.3
				c1.4-2.7,3.2-5,5.6-6.6C1916.8,194.3,1919.9,193.4,1923.7,193.4z M1923.7,198.2c-2.9,0-5.3,0.9-7,2.6c-1.7,1.7-3,3.9-3.8,6.4
				c-0.9,2.5-1.4,5.1-1.6,7.9c-0.2,2.7-0.4,5.2-0.4,7.2c0,2.1,0.1,4.5,0.4,7.2c0.2,2.7,0.8,5.4,1.6,7.9c0.9,2.5,2.1,4.6,3.8,6.4
				c1.7,1.7,4,2.6,7,2.6c2.9,0,5.3-0.9,7-2.6c1.7-1.7,3-3.9,3.8-6.4c0.9-2.5,1.4-5.1,1.6-7.9c0.2-2.7,0.4-5.2,0.4-7.2
				c0-2.1-0.1-4.5-0.4-7.2c-0.2-2.7-0.8-5.4-1.6-7.9c-0.9-2.5-2.1-4.6-3.8-6.4C1928.9,199.1,1926.6,198.2,1923.7,198.2z"/>
			<path class="st10" d="M1967,193.4c3.8,0,6.9,0.8,9.2,2.5c2.4,1.7,4.2,3.9,5.6,6.6c1.4,2.7,2.3,5.8,2.8,9.3s0.8,6.9,0.8,10.4
				s-0.3,7-0.8,10.4s-1.4,6.5-2.8,9.3c-1.4,2.7-3.2,5-5.6,6.6c-2.4,1.7-5.5,2.5-9.2,2.5c-3.8,0-6.9-0.8-9.2-2.5
				c-2.4-1.7-4.2-3.9-5.6-6.6c-1.4-2.7-2.3-5.8-2.8-9.3c-0.5-3.4-0.8-6.9-0.8-10.4s0.3-7,0.8-10.4s1.4-6.5,2.8-9.3
				c1.4-2.7,3.2-5,5.6-6.6S1963.2,193.4,1967,193.4z M1967,198.2c-2.9,0-5.3,0.9-7,2.6c-1.7,1.7-3,3.9-3.8,6.4
				c-0.9,2.5-1.4,5.1-1.6,7.9c-0.2,2.7-0.4,5.2-0.4,7.2c0,2.1,0.1,4.5,0.4,7.2c0.2,2.7,0.8,5.4,1.6,7.9c0.9,2.5,2.1,4.6,3.8,6.4
				c1.7,1.7,4,2.6,7,2.6c2.9,0,5.3-0.9,7-2.6c1.7-1.7,3-3.9,3.8-6.4c0.9-2.5,1.4-5.1,1.6-7.9c0.2-2.7,0.4-5.2,0.4-7.2
				c0-2.1-0.1-4.5-0.4-7.2c-0.2-2.7-0.8-5.4-1.6-7.9c-0.9-2.5-2.1-4.6-3.8-6.4C1972.2,199.1,1969.9,198.2,1967,198.2z"/>
			<path class="st10" d="M1824.2,341.3c2.4-1,4.7-2.2,6.8-3.7c2.1-1.5,4.1-3.2,5.9-5h5V388h-5.2v-49.8c-1.9,1.8-3.9,3.3-6,4.7
				c-2.1,1.4-4.3,2.6-6.5,3.6L1824.2,341.3L1824.2,341.3z"/>
			<path class="st10" d="M1862.2,388v-5.4c1.2-1.1,2.7-2.5,4.6-4.2c1.9-1.8,3.9-3.7,6-5.9c2.1-2.2,4.2-4.4,6.4-6.8
				c2.1-2.4,4.1-4.8,5.8-7.1c1.7-2.3,3.1-4.6,4.2-6.7s1.6-4,1.6-5.7c0-1.6-0.3-3-0.9-4.2s-1.4-2.3-2.4-3.1c-1-0.8-2.2-1.5-3.6-1.9
				s-2.8-0.6-4.3-0.6c-1.7,0-3.2,0.3-4.6,0.8s-2.6,1.3-3.6,2.3s-1.7,2.2-2.3,3.5c-0.5,1.4-0.8,2.8-0.8,4.4h-5.6
				c0-2.5,0.4-4.7,1.3-6.6s2-3.6,3.6-5c1.5-1.4,3.3-2.4,5.4-3.2c2.1-0.7,4.3-1.1,6.7-1.1c2.2,0,4.4,0.3,6.4,0.9s3.8,1.5,5.3,2.7
				s2.7,2.7,3.6,4.5s1.3,3.9,1.3,6.3c0,2.1-0.5,4.4-1.5,6.7c-1,2.3-2.3,4.6-3.8,7c-1.6,2.3-3.4,4.6-5.4,6.8c-2,2.2-4.1,4.4-6.1,6.4
				c-2.1,2.1-4,4-6,5.8c-1.9,1.8-3.6,3.4-5,4.8h28.6v4.8h-34.9L1862.2,388L1862.2,388z"/>
			<path class="st10" d="M1923.7,331.4c3.8,0,6.9,0.8,9.2,2.5c2.4,1.7,4.2,3.9,5.6,6.6s2.3,5.8,2.8,9.3s0.8,6.9,0.8,10.4
				s-0.3,7-0.8,10.4s-1.4,6.5-2.8,9.3c-1.4,2.7-3.2,5-5.6,6.6c-2.4,1.7-5.5,2.5-9.2,2.5c-3.8,0-6.9-0.8-9.2-2.5
				c-2.4-1.7-4.2-3.9-5.6-6.6s-2.3-5.8-2.8-9.3c-0.5-3.4-0.8-6.9-0.8-10.4s0.3-7,0.8-10.4s1.4-6.5,2.8-9.3c1.4-2.7,3.2-5,5.6-6.6
				C1916.8,332.3,1919.9,331.4,1923.7,331.4z M1923.7,336.2c-2.9,0-5.3,0.9-7,2.6s-3,3.9-3.8,6.4c-0.9,2.5-1.4,5.1-1.6,7.9
				c-0.2,2.7-0.4,5.2-0.4,7.2c0,2.1,0.1,4.5,0.4,7.2c0.2,2.7,0.8,5.4,1.6,7.9c0.9,2.5,2.1,4.6,3.8,6.4c1.7,1.7,4,2.6,7,2.6
				c2.9,0,5.3-0.9,7-2.6s3-3.9,3.8-6.4c0.9-2.5,1.4-5.1,1.6-7.9c0.2-2.7,0.4-5.2,0.4-7.2c0-2.1-0.1-4.5-0.4-7.2
				c-0.2-2.7-0.8-5.4-1.6-7.9c-0.9-2.5-2.1-4.6-3.8-6.4C1928.9,337.1,1926.6,336.2,1923.7,336.2z"/>
			<path class="st10" d="M1967,331.4c3.8,0,6.9,0.8,9.2,2.5c2.4,1.7,4.2,3.9,5.6,6.6s2.3,5.8,2.8,9.3s0.8,6.9,0.8,10.4
				s-0.3,7-0.8,10.4s-1.4,6.5-2.8,9.3c-1.4,2.7-3.2,5-5.6,6.6c-2.4,1.7-5.5,2.5-9.2,2.5c-3.8,0-6.9-0.8-9.2-2.5
				c-2.4-1.7-4.2-3.9-5.6-6.6s-2.3-5.8-2.8-9.3c-0.5-3.4-0.8-6.9-0.8-10.4s0.3-7,0.8-10.4s1.4-6.5,2.8-9.3c1.4-2.7,3.2-5,5.6-6.6
				S1963.2,331.4,1967,331.4z M1967,336.2c-2.9,0-5.3,0.9-7,2.6s-3,3.9-3.8,6.4c-0.9,2.5-1.4,5.1-1.6,7.9c-0.2,2.7-0.4,5.2-0.4,7.2
				c0,2.1,0.1,4.5,0.4,7.2c0.2,2.7,0.8,5.4,1.6,7.9c0.9,2.5,2.1,4.6,3.8,6.4c1.7,1.7,4,2.6,7,2.6c2.9,0,5.3-0.9,7-2.6s3-3.9,3.8-6.4
				c0.9-2.5,1.4-5.1,1.6-7.9c0.2-2.7,0.4-5.2,0.4-7.2c0-2.1-0.1-4.5-0.4-7.2c-0.2-2.7-0.8-5.4-1.6-7.9c-0.9-2.5-2.1-4.6-3.8-6.4
				C1972.2,337.1,1969.9,336.2,1967,336.2z"/>
			<path class="st10" d="M1824.2,479.3c2.4-1,4.7-2.2,6.8-3.7c2.1-1.5,4.1-3.2,5.9-5h5V526h-5.2v-49.8c-1.9,1.8-3.9,3.3-6,4.7
				c-2.1,1.4-4.3,2.6-6.5,3.6L1824.2,479.3L1824.2,479.3z"/>
			<path class="st10" d="M1867.4,479.3c2.4-1,4.7-2.2,6.8-3.7s4.1-3.2,5.9-5h5V526h-5.2v-49.8c-1.9,1.8-3.9,3.3-6,4.7
				c-2.1,1.4-4.3,2.6-6.5,3.6L1867.4,479.3L1867.4,479.3z"/>
			<path class="st10" d="M1923.7,469.4c3.8,0,6.9,0.8,9.2,2.5c2.4,1.7,4.2,3.9,5.6,6.6s2.3,5.8,2.8,9.3s0.8,6.9,0.8,10.4
				s-0.3,7-0.8,10.4s-1.4,6.5-2.8,9.3c-1.4,2.7-3.2,5-5.6,6.6c-2.4,1.7-5.5,2.5-9.2,2.5c-3.8,0-6.9-0.8-9.2-2.5
				c-2.4-1.7-4.2-3.9-5.6-6.6c-1.4-2.7-2.3-5.8-2.8-9.3c-0.5-3.4-0.8-6.9-0.8-10.4s0.3-7,0.8-10.4s1.4-6.5,2.8-9.3
				c1.4-2.7,3.2-5,5.6-6.6C1916.8,470.3,1919.9,469.4,1923.7,469.4z M1923.7,474.2c-2.9,0-5.3,0.9-7,2.6s-3,3.9-3.8,6.4
				c-0.9,2.5-1.4,5.1-1.6,7.9c-0.2,2.7-0.4,5.2-0.4,7.2c0,2.1,0.1,4.5,0.4,7.2c0.2,2.7,0.8,5.4,1.6,7.9c0.9,2.5,2.1,4.6,3.8,6.4
				c1.7,1.7,4,2.6,7,2.6c2.9,0,5.3-0.9,7-2.6c1.7-1.7,3-3.9,3.8-6.4c0.9-2.5,1.4-5.1,1.6-7.9c0.2-2.7,0.4-5.2,0.4-7.2
				c0-2.1-0.1-4.5-0.4-7.2c-0.2-2.7-0.8-5.4-1.6-7.9c-0.9-2.5-2.1-4.6-3.8-6.4C1928.9,475.1,1926.6,474.2,1923.7,474.2z"/>
			<path class="st10" d="M1967,469.4c3.8,0,6.9,0.8,9.2,2.5c2.4,1.7,4.2,3.9,5.6,6.6s2.3,5.8,2.8,9.3s0.8,6.9,0.8,10.4
				s-0.3,7-0.8,10.4s-1.4,6.5-2.8,9.3c-1.4,2.7-3.2,5-5.6,6.6c-2.4,1.7-5.5,2.5-9.2,2.5c-3.8,0-6.9-0.8-9.2-2.5
				c-2.4-1.7-4.2-3.9-5.6-6.6c-1.4-2.7-2.3-5.8-2.8-9.3c-0.5-3.4-0.8-6.9-0.8-10.4s0.3-7,0.8-10.4s1.4-6.5,2.8-9.3
				c1.4-2.7,3.2-5,5.6-6.6S1963.2,469.4,1967,469.4z M1967,474.2c-2.9,0-5.3,0.9-7,2.6s-3,3.9-3.8,6.4c-0.9,2.5-1.4,5.1-1.6,7.9
				c-0.2,2.7-0.4,5.2-0.4,7.2c0,2.1,0.1,4.5,0.4,7.2c0.2,2.7,0.8,5.4,1.6,7.9c0.9,2.5,2.1,4.6,3.8,6.4c1.7,1.7,4,2.6,7,2.6
				c2.9,0,5.3-0.9,7-2.6c1.7-1.7,3-3.9,3.8-6.4c0.9-2.5,1.4-5.1,1.6-7.9c0.2-2.7,0.4-5.2,0.4-7.2c0-2.1-0.1-4.5-0.4-7.2
				c-0.2-2.7-0.8-5.4-1.6-7.9c-0.9-2.5-2.1-4.6-3.8-6.4C1972.2,475.1,1969.9,474.2,1967,474.2z"/>
			<path class="st10" d="M1824.2,617.3c2.4-1,4.7-2.2,6.8-3.7c2.1-1.5,4.1-3.2,5.9-5h5V664h-5.2v-49.8c-1.9,1.8-3.9,3.3-6,4.7
				s-4.3,2.6-6.5,3.6L1824.2,617.3L1824.2,617.3z"/>
			<path class="st10" d="M1880.4,607.4c3.8,0,6.9,0.8,9.2,2.5s4.2,3.9,5.6,6.6c1.4,2.7,2.3,5.8,2.8,9.3c0.5,3.4,0.8,6.9,0.8,10.4
				s-0.3,7-0.8,10.4s-1.4,6.5-2.8,9.3c-1.4,2.7-3.2,5-5.6,6.6c-2.4,1.7-5.5,2.5-9.2,2.5s-6.9-0.8-9.2-2.5c-2.4-1.7-4.2-3.9-5.6-6.6
				c-1.4-2.7-2.3-5.8-2.8-9.3c-0.5-3.4-0.8-6.9-0.8-10.4s0.3-7,0.8-10.4s1.4-6.5,2.8-9.3c1.4-2.7,3.2-5,5.6-6.6
				S1876.6,607.4,1880.4,607.4z M1880.4,612.2c-2.9,0-5.3,0.9-7,2.6c-1.7,1.7-3,3.9-3.8,6.4c-0.9,2.5-1.4,5.1-1.6,7.9
				c-0.2,2.7-0.4,5.2-0.4,7.2c0,2.1,0.1,4.5,0.4,7.2c0.2,2.7,0.8,5.4,1.6,7.9c0.9,2.5,2.1,4.6,3.8,6.4c1.7,1.7,4,2.6,7,2.6
				c2.9,0,5.3-0.9,7-2.6c1.7-1.7,3-3.9,3.8-6.4c0.9-2.5,1.4-5.1,1.6-7.9c0.2-2.7,0.4-5.2,0.4-7.2c0-2.1-0.1-4.5-0.4-7.2
				c-0.2-2.7-0.8-5.4-1.6-7.9c-0.9-2.5-2.1-4.6-3.8-6.4C1885.7,613.1,1883.3,612.2,1880.4,612.2z"/>
			<path class="st10" d="M1923.7,607.4c3.8,0,6.9,0.8,9.2,2.5c2.4,1.7,4.2,3.9,5.6,6.6c1.4,2.7,2.3,5.8,2.8,9.3s0.8,6.9,0.8,10.4
				s-0.3,7-0.8,10.4s-1.4,6.5-2.8,9.3c-1.4,2.7-3.2,5-5.6,6.6c-2.4,1.7-5.5,2.5-9.2,2.5c-3.8,0-6.9-0.8-9.2-2.5
				c-2.4-1.7-4.2-3.9-5.6-6.6c-1.4-2.7-2.3-5.8-2.8-9.3c-0.5-3.4-0.8-6.9-0.8-10.4s0.3-7,0.8-10.4s1.4-6.5,2.8-9.3
				c1.4-2.7,3.2-5,5.6-6.6C1916.8,608.3,1919.9,607.4,1923.7,607.4z M1923.7,612.2c-2.9,0-5.3,0.9-7,2.6c-1.7,1.7-3,3.9-3.8,6.4
				c-0.9,2.5-1.4,5.1-1.6,7.9c-0.2,2.7-0.4,5.2-0.4,7.2c0,2.1,0.1,4.5,0.4,7.2c0.2,2.7,0.8,5.4,1.6,7.9c0.9,2.5,2.1,4.6,3.8,6.4
				c1.7,1.7,4,2.6,7,2.6c2.9,0,5.3-0.9,7-2.6c1.7-1.7,3-3.9,3.8-6.4c0.9-2.5,1.4-5.1,1.6-7.9c0.2-2.7,0.4-5.2,0.4-7.2
				c0-2.1-0.1-4.5-0.4-7.2c-0.2-2.7-0.8-5.4-1.6-7.9c-0.9-2.5-2.1-4.6-3.8-6.4C1928.9,613.1,1926.6,612.2,1923.7,612.2z"/>
			<path class="st10" d="M1967,607.4c3.8,0,6.9,0.8,9.2,2.5c2.4,1.7,4.2,3.9,5.6,6.6c1.4,2.7,2.3,5.8,2.8,9.3s0.8,6.9,0.8,10.4
				s-0.3,7-0.8,10.4s-1.4,6.5-2.8,9.3c-1.4,2.7-3.2,5-5.6,6.6c-2.4,1.7-5.5,2.5-9.2,2.5c-3.8,0-6.9-0.8-9.2-2.5
				c-2.4-1.7-4.2-3.9-5.6-6.6c-1.4-2.7-2.3-5.8-2.8-9.3c-0.5-3.4-0.8-6.9-0.8-10.4s0.3-7,0.8-10.4s1.4-6.5,2.8-9.3
				c1.4-2.7,3.2-5,5.6-6.6S1963.2,607.4,1967,607.4z M1967,612.2c-2.9,0-5.3,0.9-7,2.6c-1.7,1.7-3,3.9-3.8,6.4
				c-0.9,2.5-1.4,5.1-1.6,7.9c-0.2,2.7-0.4,5.2-0.4,7.2c0,2.1,0.1,4.5,0.4,7.2c0.2,2.7,0.8,5.4,1.6,7.9c0.9,2.5,2.1,4.6,3.8,6.4
				c1.7,1.7,4,2.6,7,2.6c2.9,0,5.3-0.9,7-2.6c1.7-1.7,3-3.9,3.8-6.4c0.9-2.5,1.4-5.1,1.6-7.9c0.2-2.7,0.4-5.2,0.4-7.2
				c0-2.1-0.1-4.5-0.4-7.2c-0.2-2.7-0.8-5.4-1.6-7.9c-0.9-2.5-2.1-4.6-3.8-6.4C1972.2,613.1,1969.9,612.2,1967,612.2z"/>
			<path class="st10" d="M1824.2,788.4c0.1,1.8,0.4,3.4,1,4.6s1.5,2.3,2.5,3.1c1.1,0.8,2.3,1.4,3.8,1.7c1.4,0.3,3,0.5,4.7,0.5
				c2.1,0,3.9-0.5,5.4-1.4s2.8-2.1,3.8-3.6s1.9-3.1,2.5-5s1.1-3.8,1.4-5.7s0.6-3.8,0.7-5.7c0.1-1.8,0.2-3.5,0.2-4.8h-0.2
				c-1.4,2.7-3.4,4.8-6,6.3s-5.5,2.2-8.7,2.2c-2.5,0-4.8-0.4-6.9-1.3c-2.1-0.9-3.9-2.1-5.4-3.6s-2.7-3.4-3.5-5.4
				c-0.8-2.1-1.2-4.4-1.2-6.9c0-2.6,0.4-5,1.2-7.2c0.8-2.2,2-4.1,3.6-5.7c1.5-1.6,3.4-2.9,5.6-3.8c2.2-0.9,4.6-1.4,7.3-1.4
				c4,0,7.3,0.8,9.8,2.4c2.6,1.6,4.6,3.6,6,6.2c1.5,2.6,2.5,5.5,3,8.8s0.8,6.6,0.8,10c0,3.7-0.3,7.4-0.8,11s-1.6,6.9-3.1,9.8
				c-1.5,2.9-3.7,5.2-6.4,7c-2.7,1.8-6.3,2.6-10.8,2.6c-5,0-8.8-1.4-11.5-4.1c-2.7-2.7-4.3-6.3-4.6-10.7h5.8L1824.2,788.4
				L1824.2,788.4z M1836.2,750.2c-2.1,0-3.9,0.3-5.4,1s-2.8,1.7-3.8,2.9c-1,1.3-1.7,2.7-2.2,4.4s-0.8,3.4-0.8,5.4
				c0,3.7,1.1,6.7,3.2,9s5,3.4,8.7,3.4c1.9,0,3.7-0.3,5.3-1c1.6-0.6,3-1.5,4.2-2.7s2.1-2.6,2.8-4.2c0.7-1.6,1-3.4,1-5.3
				s-0.3-3.7-1-5.2c-0.6-1.6-1.5-2.9-2.7-4.1c-1.2-1.1-2.5-2-4.1-2.7C1839.9,750.5,1838.2,750.2,1836.2,750.2z"/>
			<path class="st10" d="M1880.4,745.4c3.8,0,6.9,0.8,9.2,2.5s4.2,3.9,5.6,6.6c1.4,2.7,2.3,5.8,2.8,9.3c0.5,3.4,0.8,6.9,0.8,10.4
				s-0.3,7-0.8,10.4s-1.4,6.5-2.8,9.3c-1.4,2.7-3.2,5-5.6,6.6c-2.4,1.7-5.5,2.5-9.2,2.5s-6.9-0.8-9.2-2.5c-2.4-1.7-4.2-3.9-5.6-6.6
				c-1.4-2.7-2.3-5.8-2.8-9.3c-0.5-3.4-0.8-6.9-0.8-10.4s0.3-7,0.8-10.4s1.4-6.5,2.8-9.3c1.4-2.7,3.2-5,5.6-6.6
				S1876.6,745.4,1880.4,745.4z M1880.4,750.2c-2.9,0-5.3,0.9-7,2.6c-1.7,1.7-3,3.9-3.8,6.4c-0.9,2.5-1.4,5.1-1.6,7.9
				c-0.2,2.7-0.4,5.2-0.4,7.2s0.1,4.5,0.4,7.2c0.2,2.7,0.8,5.4,1.6,7.9c0.9,2.5,2.1,4.6,3.8,6.4c1.7,1.7,4,2.6,7,2.6
				c2.9,0,5.3-0.9,7-2.6c1.7-1.7,3-3.9,3.8-6.4c0.9-2.5,1.4-5.1,1.6-7.9c0.2-2.7,0.4-5.2,0.4-7.2s-0.1-4.5-0.4-7.2
				c-0.2-2.7-0.8-5.4-1.6-7.9c-0.9-2.5-2.1-4.6-3.8-6.4C1885.7,751.1,1883.3,750.2,1880.4,750.2z"/>
			<path class="st10" d="M1923.7,745.4c3.8,0,6.9,0.8,9.2,2.5c2.4,1.7,4.2,3.9,5.6,6.6c1.4,2.7,2.3,5.8,2.8,9.3
				c0.5,3.4,0.8,6.9,0.8,10.4s-0.3,7-0.8,10.4s-1.4,6.5-2.8,9.3c-1.4,2.7-3.2,5-5.6,6.6c-2.4,1.7-5.5,2.5-9.2,2.5
				c-3.8,0-6.9-0.8-9.2-2.5c-2.4-1.7-4.2-3.9-5.6-6.6c-1.4-2.7-2.3-5.8-2.8-9.3c-0.5-3.4-0.8-6.9-0.8-10.4s0.3-7,0.8-10.4
				s1.4-6.5,2.8-9.3c1.4-2.7,3.2-5,5.6-6.6C1916.8,746.3,1919.9,745.4,1923.7,745.4z M1923.7,750.2c-2.9,0-5.3,0.9-7,2.6
				c-1.7,1.7-3,3.9-3.8,6.4c-0.9,2.5-1.4,5.1-1.6,7.9c-0.2,2.7-0.4,5.2-0.4,7.2s0.1,4.5,0.4,7.2c0.2,2.7,0.8,5.4,1.6,7.9
				c0.9,2.5,2.1,4.6,3.8,6.4c1.7,1.7,4,2.6,7,2.6c2.9,0,5.3-0.9,7-2.6c1.7-1.7,3-3.9,3.8-6.4s1.4-5.1,1.6-7.9
				c0.2-2.7,0.4-5.2,0.4-7.2s-0.1-4.5-0.4-7.2c-0.2-2.7-0.8-5.4-1.6-7.9s-2.1-4.6-3.8-6.4C1928.9,751.1,1926.6,750.2,1923.7,750.2z"
				/>
			<path class="st10" d="M1967,745.4c3.8,0,6.9,0.8,9.2,2.5c2.4,1.7,4.2,3.9,5.6,6.6c1.4,2.7,2.3,5.8,2.8,9.3
				c0.5,3.4,0.8,6.9,0.8,10.4s-0.3,7-0.8,10.4s-1.4,6.5-2.8,9.3c-1.4,2.7-3.2,5-5.6,6.6c-2.4,1.7-5.5,2.5-9.2,2.5
				c-3.8,0-6.9-0.8-9.2-2.5c-2.4-1.7-4.2-3.9-5.6-6.6c-1.4-2.7-2.3-5.8-2.8-9.3c-0.5-3.4-0.8-6.9-0.8-10.4s0.3-7,0.8-10.4
				s1.4-6.5,2.8-9.3c1.4-2.7,3.2-5,5.6-6.6S1963.2,745.4,1967,745.4z M1967,750.2c-2.9,0-5.3,0.9-7,2.6c-1.7,1.7-3,3.9-3.8,6.4
				s-1.4,5.1-1.6,7.9c-0.2,2.7-0.4,5.2-0.4,7.2s0.1,4.5,0.4,7.2c0.2,2.7,0.8,5.4,1.6,7.9s2.1,4.6,3.8,6.4c1.7,1.7,4,2.6,7,2.6
				c2.9,0,5.3-0.9,7-2.6c1.7-1.7,3-3.9,3.8-6.4c0.9-2.5,1.4-5.1,1.6-7.9c0.2-2.7,0.4-5.2,0.4-7.2s-0.1-4.5-0.4-7.2
				c-0.2-2.7-0.8-5.4-1.6-7.9c-0.9-2.5-2.1-4.6-3.8-6.4C1972.2,751.1,1969.9,750.2,1967,750.2z"/>
			<path class="st10" d="M1830.4,911.1c-1.6-0.2-3.1-0.6-4.5-1.4c-1.4-0.7-2.6-1.7-3.6-2.8s-1.8-2.5-2.4-3.9c-0.6-1.5-0.8-3-0.8-4.7
				c0-2.6,0.5-4.8,1.6-6.6c1-1.9,2.4-3.4,4.1-4.6c1.7-1.2,3.6-2.1,5.8-2.7s4.3-0.9,6.6-0.9s4.4,0.3,6.6,0.9c2.1,0.6,4.1,1.5,5.8,2.7
				c1.7,1.2,3.1,2.8,4.1,4.6c1,1.9,1.6,4.1,1.6,6.6c0,1.7-0.3,3.3-0.8,4.6c-0.6,1.4-1.3,2.6-2.4,3.7c-1,1.1-2.2,2-3.5,2.8
				c-1.3,0.7-2.8,1.3-4.4,1.7v0.1c3.7,1,6.6,2.6,8.7,4.8c2.1,2.3,3.2,5.2,3.2,8.9c0,2.8-0.5,5.3-1.6,7.3s-2.5,3.7-4.3,5
				s-3.8,2.3-6,3c-2.3,0.6-4.5,1-6.8,1s-4.6-0.3-6.9-1c-2.2-0.6-4.2-1.6-6-3c-1.8-1.3-3.2-3-4.3-5c-1.1-2-1.6-4.5-1.6-7.3
				c0-1.8,0.3-3.4,0.8-4.9c0.6-1.5,1.4-2.9,2.4-4c1.1-1.2,2.3-2.2,3.8-3s3.1-1.4,5-1.8v-0.1L1830.4,911.1L1830.4,911.1z
				 M1823.9,924.9c0,2,0.4,3.7,1.1,5.1c0.7,1.4,1.7,2.6,2.9,3.6c1.2,0.9,2.6,1.6,4.2,2.1s3.3,0.7,5,0.7s3.4-0.2,5-0.7s3-1.1,4.2-2.1
				c1.2-0.9,2.2-2.1,2.9-3.6c0.7-1.4,1.1-3.1,1.1-5.1s-0.4-3.7-1.1-5.1c-0.7-1.4-1.7-2.6-2.9-3.6c-1.2-0.9-2.6-1.6-4.2-2.1
				s-3.3-0.7-5-0.7s-3.4,0.2-5,0.7s-3,1.1-4.2,2.1c-1.2,0.9-2.2,2.1-2.9,3.6C1824.3,921.3,1823.9,923,1823.9,924.9z M1824.3,898.3
				c0,3.5,1.2,6.1,3.6,7.8s5.5,2.6,9.2,2.6s6.7-0.9,9.2-2.6c2.4-1.7,3.6-4.3,3.6-7.8c0-1.9-0.4-3.5-1.1-4.8s-1.7-2.4-3-3.2
				c-1.2-0.8-2.6-1.4-4.1-1.8c-1.5-0.4-3.1-0.6-4.6-0.6s-3.1,0.2-4.6,0.6c-1.5,0.4-2.9,1-4.1,1.8s-2.2,1.9-3,3.2
				C1824.7,894.8,1824.3,896.4,1824.3,898.3z"/>
			<path class="st10" d="M1880.4,883.4c3.8,0,6.9,0.8,9.2,2.5s4.2,3.9,5.6,6.6c1.4,2.7,2.3,5.8,2.8,9.3c0.5,3.4,0.8,6.9,0.8,10.4
				s-0.3,7-0.8,10.4s-1.4,6.5-2.8,9.3c-1.4,2.7-3.2,5-5.6,6.6c-2.4,1.7-5.5,2.5-9.2,2.5s-6.9-0.8-9.2-2.5c-2.4-1.7-4.2-3.9-5.6-6.6
				c-1.4-2.7-2.3-5.8-2.8-9.3c-0.5-3.4-0.8-6.9-0.8-10.4s0.3-7,0.8-10.4s1.4-6.5,2.8-9.3c1.4-2.7,3.2-5,5.6-6.6
				S1876.6,883.4,1880.4,883.4z M1880.4,888.2c-2.9,0-5.3,0.9-7,2.6c-1.7,1.7-3,3.9-3.8,6.4c-0.9,2.5-1.4,5.1-1.6,7.9
				c-0.2,2.7-0.4,5.2-0.4,7.2s0.1,4.5,0.4,7.2c0.2,2.7,0.8,5.4,1.6,7.9c0.9,2.5,2.1,4.6,3.8,6.4c1.7,1.7,4,2.6,7,2.6
				c2.9,0,5.3-0.9,7-2.6c1.7-1.7,3-3.9,3.8-6.4c0.9-2.5,1.4-5.1,1.6-7.9c0.2-2.7,0.4-5.2,0.4-7.2s-0.1-4.5-0.4-7.2
				c-0.2-2.7-0.8-5.4-1.6-7.9c-0.9-2.5-2.1-4.6-3.8-6.4C1885.7,889.1,1883.3,888.2,1880.4,888.2z"/>
			<path class="st10" d="M1923.7,883.4c3.8,0,6.9,0.8,9.2,2.5c2.4,1.7,4.2,3.9,5.6,6.6c1.4,2.7,2.3,5.8,2.8,9.3
				c0.5,3.4,0.8,6.9,0.8,10.4s-0.3,7-0.8,10.4s-1.4,6.5-2.8,9.3c-1.4,2.7-3.2,5-5.6,6.6c-2.4,1.7-5.5,2.5-9.2,2.5
				c-3.8,0-6.9-0.8-9.2-2.5c-2.4-1.7-4.2-3.9-5.6-6.6c-1.4-2.7-2.3-5.8-2.8-9.3c-0.5-3.4-0.8-6.9-0.8-10.4s0.3-7,0.8-10.4
				s1.4-6.5,2.8-9.3c1.4-2.7,3.2-5,5.6-6.6C1916.8,884.3,1919.9,883.4,1923.7,883.4z M1923.7,888.2c-2.9,0-5.3,0.9-7,2.6
				c-1.7,1.7-3,3.9-3.8,6.4c-0.9,2.5-1.4,5.1-1.6,7.9c-0.2,2.7-0.4,5.2-0.4,7.2s0.1,4.5,0.4,7.2c0.2,2.7,0.8,5.4,1.6,7.9
				c0.9,2.5,2.1,4.6,3.8,6.4c1.7,1.7,4,2.6,7,2.6c2.9,0,5.3-0.9,7-2.6c1.7-1.7,3-3.9,3.8-6.4s1.4-5.1,1.6-7.9
				c0.2-2.7,0.4-5.2,0.4-7.2s-0.1-4.5-0.4-7.2c-0.2-2.7-0.8-5.4-1.6-7.9s-2.1-4.6-3.8-6.4C1928.9,889.1,1926.6,888.2,1923.7,888.2z"
				/>
			<path class="st10" d="M1967,883.4c3.8,0,6.9,0.8,9.2,2.5c2.4,1.7,4.2,3.9,5.6,6.6c1.4,2.7,2.3,5.8,2.8,9.3
				c0.5,3.4,0.8,6.9,0.8,10.4s-0.3,7-0.8,10.4s-1.4,6.5-2.8,9.3c-1.4,2.7-3.2,5-5.6,6.6c-2.4,1.7-5.5,2.5-9.2,2.5
				c-3.8,0-6.9-0.8-9.2-2.5c-2.4-1.7-4.2-3.9-5.6-6.6c-1.4-2.7-2.3-5.8-2.8-9.3c-0.5-3.4-0.8-6.9-0.8-10.4s0.3-7,0.8-10.4
				s1.4-6.5,2.8-9.3c1.4-2.7,3.2-5,5.6-6.6S1963.2,883.4,1967,883.4z M1967,888.2c-2.9,0-5.3,0.9-7,2.6c-1.7,1.7-3,3.9-3.8,6.4
				s-1.4,5.1-1.6,7.9c-0.2,2.7-0.4,5.2-0.4,7.2s0.1,4.5,0.4,7.2c0.2,2.7,0.8,5.4,1.6,7.9s2.1,4.6,3.8,6.4c1.7,1.7,4,2.6,7,2.6
				c2.9,0,5.3-0.9,7-2.6c1.7-1.7,3-3.9,3.8-6.4c0.9-2.5,1.4-5.1,1.6-7.9c0.2-2.7,0.4-5.2,0.4-7.2s-0.1-4.5-0.4-7.2
				c-0.2-2.7-0.8-5.4-1.6-7.9c-0.9-2.5-2.1-4.6-3.8-6.4C1972.2,889.1,1969.9,888.2,1967,888.2z"/>
			<path class="st10" d="M1854.2,1027.3l-21.5,50.7h-6.1l22.2-50.6H1819v-4.8h35.3v4.7H1854.2z"/>
			<path class="st10" d="M1880.4,1021.4c3.8,0,6.9,0.8,9.2,2.5c2.3,1.7,4.2,3.9,5.6,6.6s2.3,5.8,2.8,9.3c0.5,3.4,0.8,6.9,0.8,10.4
				s-0.3,7-0.8,10.4s-1.4,6.5-2.8,9.3c-1.4,2.7-3.2,5-5.6,6.6c-2.4,1.7-5.5,2.5-9.2,2.5s-6.9-0.8-9.2-2.5c-2.4-1.7-4.2-3.9-5.6-6.6
				s-2.3-5.8-2.8-9.3c-0.5-3.4-0.8-6.9-0.8-10.4s0.3-7,0.8-10.4s1.4-6.5,2.8-9.3c1.4-2.7,3.2-5,5.6-6.6S1876.6,1021.4,1880.4,1021.4
				z M1880.4,1026.2c-2.9,0-5.3,0.9-7,2.6s-3,3.9-3.8,6.4c-0.9,2.5-1.4,5.1-1.6,7.9c-0.2,2.7-0.4,5.2-0.4,7.2s0.1,4.5,0.4,7.2
				c0.2,2.7,0.8,5.4,1.6,7.9c0.9,2.5,2.1,4.6,3.8,6.4c1.7,1.7,4,2.6,7,2.6c2.9,0,5.3-0.9,7-2.6s3-3.9,3.8-6.4
				c0.9-2.5,1.4-5.1,1.6-7.9c0.2-2.7,0.4-5.2,0.4-7.2s-0.1-4.5-0.4-7.2c-0.2-2.7-0.8-5.4-1.6-7.9c-0.9-2.5-2.1-4.6-3.8-6.4
				C1885.7,1027.1,1883.3,1026.2,1880.4,1026.2z"/>
			<path class="st10" d="M1923.7,1021.4c3.8,0,6.9,0.8,9.2,2.5c2.4,1.7,4.2,3.9,5.6,6.6s2.3,5.8,2.8,9.3c0.5,3.4,0.8,6.9,0.8,10.4
				s-0.3,7-0.8,10.4s-1.4,6.5-2.8,9.3c-1.4,2.7-3.2,5-5.6,6.6c-2.4,1.7-5.5,2.5-9.2,2.5c-3.8,0-6.9-0.8-9.2-2.5
				c-2.4-1.7-4.2-3.9-5.6-6.6s-2.3-5.8-2.8-9.3c-0.5-3.4-0.8-6.9-0.8-10.4s0.3-7,0.8-10.4s1.4-6.5,2.8-9.3c1.4-2.7,3.2-5,5.6-6.6
				C1916.8,1022.3,1919.9,1021.4,1923.7,1021.4z M1923.7,1026.2c-2.9,0-5.3,0.9-7,2.6s-3,3.9-3.8,6.4c-0.9,2.5-1.4,5.1-1.6,7.9
				c-0.2,2.7-0.4,5.2-0.4,7.2s0.1,4.5,0.4,7.2c0.2,2.7,0.8,5.4,1.6,7.9c0.9,2.5,2.1,4.6,3.8,6.4c1.7,1.7,4,2.6,7,2.6
				c2.9,0,5.3-0.9,7-2.6s3-3.9,3.8-6.4s1.4-5.1,1.6-7.9c0.2-2.7,0.4-5.2,0.4-7.2s-0.1-4.5-0.4-7.2c-0.2-2.7-0.8-5.4-1.6-7.9
				s-2.1-4.6-3.8-6.4C1928.9,1027.1,1926.6,1026.2,1923.7,1026.2z"/>
			<path class="st10" d="M1967,1021.4c3.8,0,6.9,0.8,9.2,2.5c2.4,1.7,4.2,3.9,5.6,6.6s2.3,5.8,2.8,9.3c0.5,3.4,0.8,6.9,0.8,10.4
				s-0.3,7-0.8,10.4s-1.4,6.5-2.8,9.3c-1.4,2.7-3.2,5-5.6,6.6c-2.4,1.7-5.5,2.5-9.2,2.5c-3.8,0-6.9-0.8-9.2-2.5
				c-2.4-1.7-4.2-3.9-5.6-6.6s-2.3-5.8-2.8-9.3c-0.5-3.4-0.8-6.9-0.8-10.4s0.3-7,0.8-10.4s1.4-6.5,2.8-9.3c1.4-2.7,3.2-5,5.6-6.6
				S1963.2,1021.4,1967,1021.4z M1967,1026.2c-2.9,0-5.3,0.9-7,2.6s-3,3.9-3.8,6.4s-1.4,5.1-1.6,7.9c-0.2,2.7-0.4,5.2-0.4,7.2
				s0.1,4.5,0.4,7.2c0.2,2.7,0.8,5.4,1.6,7.9s2.1,4.6,3.8,6.4c1.7,1.7,4,2.6,7,2.6c2.9,0,5.3-0.9,7-2.6s3-3.9,3.8-6.4
				c0.9-2.5,1.4-5.1,1.6-7.9c0.2-2.7,0.4-5.2,0.4-7.2s-0.1-4.5-0.4-7.2c-0.2-2.7-0.8-5.4-1.6-7.9c-0.9-2.5-2.1-4.6-3.8-6.4
				C1972.2,1027.1,1969.9,1026.2,1967,1026.2z"/>
			<path class="st10" d="M1838.6,1159.4c2.2,0,4.3,0.3,6.3,0.9s3.7,1.5,5.2,2.6s2.7,2.6,3.5,4.4c0.9,1.8,1.3,3.9,1.4,6.3h-5.6
				c-0.1-1.4-0.4-2.7-1-3.9c-0.6-1.1-1.3-2.1-2.3-3c-0.9-0.8-2-1.5-3.3-1.9s-2.6-0.6-4-0.6c-3.3,0-5.9,0.8-7.9,2.4s-3.5,3.7-4.5,6.1
				c-1,2.5-1.7,5.1-2,8s-0.4,5.7-0.4,8.3h0.2c1.2-3,3.1-5.3,5.8-6.8c2.6-1.5,5.5-2.2,8.8-2.2c2.7,0,5.1,0.5,7.2,1.4s3.9,2.2,5.3,3.8
				c1.4,1.7,2.5,3.6,3.3,5.8c0.7,2.2,1.1,4.7,1.1,7.3c0,2.7-0.4,5.1-1.2,7.4c-0.8,2.3-1.9,4.3-3.4,6s-3.3,3-5.5,4s-4.6,1.4-7.3,1.4
				c-3.8,0-7-0.7-9.6-2.2s-4.6-3.4-6.1-5.8s-2.6-5.2-3.2-8.4c-0.6-3.1-0.9-6.4-0.9-9.7c0-2.3,0.1-4.8,0.2-7.2c0.2-2.5,0.5-4.9,1-7.2
				c0.5-2.3,1.2-4.6,2.1-6.6c0.9-2.1,2.1-3.9,3.6-5.5s3.3-2.8,5.5-3.7C1833.1,1159.9,1835.7,1159.4,1838.6,1159.4z M1838.6,1184.5
				c-2.2,0-4.1,0.4-5.8,1.1c-1.7,0.7-3.1,1.8-4.2,3.1c-1.1,1.3-2,2.9-2.6,4.6c-0.6,1.8-0.9,3.7-0.9,5.8c0,1.8,0.3,3.4,0.9,5
				s1.5,3,2.6,4.2s2.4,2.2,4,2.9c1.5,0.7,3.2,1.1,5,1.1c2,0,3.8-0.3,5.4-1s2.9-1.7,4-2.9c1.1-1.2,1.9-2.7,2.4-4.3
				c0.6-1.7,0.8-3.5,0.8-5.4c0-1.8-0.2-3.6-0.6-5.3c-0.4-1.7-1.1-3.2-2-4.6c-0.9-1.3-2.1-2.4-3.6-3.2
				C1842.4,1184.9,1840.6,1184.5,1838.6,1184.5z"/>
			<path class="st10" d="M1880.4,1159.4c3.8,0,6.9,0.8,9.2,2.5s4.2,3.9,5.6,6.6s2.3,5.8,2.8,9.3c0.5,3.4,0.8,6.9,0.8,10.4
				s-0.3,7-0.8,10.4s-1.4,6.5-2.8,9.3c-1.4,2.7-3.2,5-5.6,6.6c-2.4,1.7-5.5,2.5-9.2,2.5s-6.9-0.8-9.2-2.5c-2.4-1.7-4.2-3.9-5.6-6.6
				s-2.3-5.8-2.8-9.3c-0.5-3.4-0.8-6.9-0.8-10.4s0.3-7,0.8-10.4s1.4-6.5,2.8-9.3c1.4-2.7,3.2-5,5.6-6.6S1876.6,1159.4,1880.4,1159.4
				z M1880.4,1164.2c-2.9,0-5.3,0.9-7,2.6s-3,3.9-3.8,6.4c-0.9,2.5-1.4,5.1-1.6,7.9c-0.2,2.7-0.4,5.2-0.4,7.2s0.1,4.5,0.4,7.2
				c0.2,2.7,0.8,5.4,1.6,7.9c0.9,2.5,2.1,4.6,3.8,6.4c1.7,1.7,4,2.6,7,2.6c2.9,0,5.3-0.9,7-2.6s3-3.9,3.8-6.4
				c0.9-2.5,1.4-5.1,1.6-7.9c0.2-2.7,0.4-5.2,0.4-7.2s-0.1-4.5-0.4-7.2c-0.2-2.7-0.8-5.4-1.6-7.9c-0.9-2.5-2.1-4.6-3.8-6.4
				C1885.7,1165.1,1883.3,1164.2,1880.4,1164.2z"/>
			<path class="st10" d="M1923.7,1159.4c3.8,0,6.9,0.8,9.2,2.5c2.4,1.7,4.2,3.9,5.6,6.6s2.3,5.8,2.8,9.3c0.5,3.4,0.8,6.9,0.8,10.4
				s-0.3,7-0.8,10.4s-1.4,6.5-2.8,9.3c-1.4,2.7-3.2,5-5.6,6.6c-2.4,1.7-5.5,2.5-9.2,2.5c-3.8,0-6.9-0.8-9.2-2.5
				c-2.4-1.7-4.2-3.9-5.6-6.6s-2.3-5.8-2.8-9.3c-0.5-3.4-0.8-6.9-0.8-10.4s0.3-7,0.8-10.4s1.4-6.5,2.8-9.3c1.4-2.7,3.2-5,5.6-6.6
				C1916.8,1160.3,1919.9,1159.4,1923.7,1159.4z M1923.7,1164.2c-2.9,0-5.3,0.9-7,2.6s-3,3.9-3.8,6.4c-0.9,2.5-1.4,5.1-1.6,7.9
				c-0.2,2.7-0.4,5.2-0.4,7.2s0.1,4.5,0.4,7.2c0.2,2.7,0.8,5.4,1.6,7.9c0.9,2.5,2.1,4.6,3.8,6.4c1.7,1.7,4,2.6,7,2.6
				c2.9,0,5.3-0.9,7-2.6s3-3.9,3.8-6.4s1.4-5.1,1.6-7.9c0.2-2.7,0.4-5.2,0.4-7.2s-0.1-4.5-0.4-7.2c-0.2-2.7-0.8-5.4-1.6-7.9
				s-2.1-4.6-3.8-6.4C1928.9,1165.1,1926.6,1164.2,1923.7,1164.2z"/>
			<path class="st10" d="M1967,1159.4c3.8,0,6.9,0.8,9.2,2.5c2.4,1.7,4.2,3.9,5.6,6.6s2.3,5.8,2.8,9.3c0.5,3.4,0.8,6.9,0.8,10.4
				s-0.3,7-0.8,10.4s-1.4,6.5-2.8,9.3c-1.4,2.7-3.2,5-5.6,6.6c-2.4,1.7-5.5,2.5-9.2,2.5c-3.8,0-6.9-0.8-9.2-2.5
				c-2.4-1.7-4.2-3.9-5.6-6.6s-2.3-5.8-2.8-9.3c-0.5-3.4-0.8-6.9-0.8-10.4s0.3-7,0.8-10.4s1.4-6.5,2.8-9.3c1.4-2.7,3.2-5,5.6-6.6
				S1963.2,1159.4,1967,1159.4z M1967,1164.2c-2.9,0-5.3,0.9-7,2.6s-3,3.9-3.8,6.4s-1.4,5.1-1.6,7.9c-0.2,2.7-0.4,5.2-0.4,7.2
				s0.1,4.5,0.4,7.2c0.2,2.7,0.8,5.4,1.6,7.9s2.1,4.6,3.8,6.4c1.7,1.7,4,2.6,7,2.6c2.9,0,5.3-0.9,7-2.6s3-3.9,3.8-6.4
				c0.9-2.5,1.4-5.1,1.6-7.9c0.2-2.7,0.4-5.2,0.4-7.2s-0.1-4.5-0.4-7.2c-0.2-2.7-0.8-5.4-1.6-7.9c-0.9-2.5-2.1-4.6-3.8-6.4
				C1972.2,1165.1,1969.9,1164.2,1967,1164.2z"/>
			<path class="st10" d="M1822.2,1298.6h30.5v4.8h-25.5l-0.9,19.8l0.2,0.2c1.5-1.8,3.3-3.2,5.4-4.3c2-1,4.3-1.6,6.8-1.6
				c2.6,0,5,0.5,7,1.5c2.1,1,3.9,2.3,5.3,4c1.5,1.7,2.6,3.7,3.4,5.9c0.8,2.2,1.2,4.6,1.2,7c0,2.7-0.4,5.2-1.2,7.5
				c-0.8,2.3-2,4.3-3.5,6.1c-1.5,1.7-3.4,3.1-5.6,4.1s-4.7,1.5-7.4,1.5c-2.3,0-4.6-0.3-6.7-0.8c-2.1-0.6-4-1.4-5.6-2.6
				s-2.9-2.7-4-4.6c-1-1.9-1.5-4.1-1.6-6.7h5.6c0.1,1.7,0.4,3.1,1.1,4.4s1.5,2.3,2.6,3.1c1,0.8,2.3,1.5,3.6,1.9
				c1.4,0.4,2.9,0.6,4.5,0.6c2.1,0,4-0.4,5.6-1.2c1.6-0.8,2.9-1.8,4-3.2c1.1-1.3,1.9-2.9,2.4-4.6c0.5-1.8,0.8-3.7,0.8-5.7
				c0-4-1-7.2-3.1-9.7s-5.2-3.7-9.3-3.7c-2.7,0-5.1,0.7-7.2,2.2s-3.5,3.5-4,6.2h-5.4L1822.2,1298.6z"/>
			<path class="st10" d="M1880.4,1297.4c3.8,0,6.9,0.8,9.2,2.5s4.2,3.9,5.6,6.6s2.3,5.8,2.8,9.3c0.5,3.4,0.8,6.9,0.8,10.4
				s-0.3,7-0.8,10.4s-1.4,6.5-2.8,9.3c-1.4,2.7-3.2,5-5.6,6.6c-2.4,1.7-5.5,2.5-9.2,2.5s-6.9-0.8-9.2-2.5c-2.4-1.7-4.2-3.9-5.6-6.6
				s-2.3-5.8-2.8-9.3c-0.5-3.4-0.8-6.9-0.8-10.4s0.3-7,0.8-10.4s1.4-6.5,2.8-9.3c1.4-2.7,3.2-5,5.6-6.6S1876.6,1297.4,1880.4,1297.4
				z M1880.4,1302.2c-2.9,0-5.3,0.9-7,2.6s-3,3.9-3.8,6.4c-0.9,2.5-1.4,5.1-1.6,7.9c-0.2,2.7-0.4,5.2-0.4,7.2s0.1,4.5,0.4,7.2
				c0.2,2.7,0.8,5.4,1.6,7.9c0.9,2.5,2.1,4.6,3.8,6.4c1.7,1.7,4,2.6,7,2.6c2.9,0,5.3-0.9,7-2.6s3-3.9,3.8-6.4
				c0.9-2.5,1.4-5.1,1.6-7.9c0.2-2.7,0.4-5.2,0.4-7.2s-0.1-4.5-0.4-7.2c-0.2-2.7-0.8-5.4-1.6-7.9c-0.9-2.5-2.1-4.6-3.8-6.4
				C1885.7,1303.1,1883.3,1302.2,1880.4,1302.2z"/>
			<path class="st10" d="M1923.7,1297.4c3.8,0,6.9,0.8,9.2,2.5c2.4,1.7,4.2,3.9,5.6,6.6s2.3,5.8,2.8,9.3c0.5,3.4,0.8,6.9,0.8,10.4
				s-0.3,7-0.8,10.4s-1.4,6.5-2.8,9.3c-1.4,2.7-3.2,5-5.6,6.6c-2.4,1.7-5.5,2.5-9.2,2.5c-3.8,0-6.9-0.8-9.2-2.5
				c-2.4-1.7-4.2-3.9-5.6-6.6s-2.3-5.8-2.8-9.3c-0.5-3.4-0.8-6.9-0.8-10.4s0.3-7,0.8-10.4s1.4-6.5,2.8-9.3c1.4-2.7,3.2-5,5.6-6.6
				C1916.8,1298.3,1919.9,1297.4,1923.7,1297.4z M1923.7,1302.2c-2.9,0-5.3,0.9-7,2.6s-3,3.9-3.8,6.4c-0.9,2.5-1.4,5.1-1.6,7.9
				c-0.2,2.7-0.4,5.2-0.4,7.2s0.1,4.5,0.4,7.2c0.2,2.7,0.8,5.4,1.6,7.9c0.9,2.5,2.1,4.6,3.8,6.4c1.7,1.7,4,2.6,7,2.6
				c2.9,0,5.3-0.9,7-2.6s3-3.9,3.8-6.4s1.4-5.1,1.6-7.9c0.2-2.7,0.4-5.2,0.4-7.2s-0.1-4.5-0.4-7.2c-0.2-2.7-0.8-5.4-1.6-7.9
				s-2.1-4.6-3.8-6.4C1928.9,1303.1,1926.6,1302.2,1923.7,1302.2z"/>
			<path class="st10" d="M1967,1297.4c3.8,0,6.9,0.8,9.2,2.5c2.4,1.7,4.2,3.9,5.6,6.6s2.3,5.8,2.8,9.3c0.5,3.4,0.8,6.9,0.8,10.4
				s-0.3,7-0.8,10.4s-1.4,6.5-2.8,9.3c-1.4,2.7-3.2,5-5.6,6.6c-2.4,1.7-5.5,2.5-9.2,2.5c-3.8,0-6.9-0.8-9.2-2.5
				c-2.4-1.7-4.2-3.9-5.6-6.6s-2.3-5.8-2.8-9.3c-0.5-3.4-0.8-6.9-0.8-10.4s0.3-7,0.8-10.4s1.4-6.5,2.8-9.3c1.4-2.7,3.2-5,5.6-6.6
				S1963.2,1297.4,1967,1297.4z M1967,1302.2c-2.9,0-5.3,0.9-7,2.6s-3,3.9-3.8,6.4s-1.4,5.1-1.6,7.9c-0.2,2.7-0.4,5.2-0.4,7.2
				s0.1,4.5,0.4,7.2c0.2,2.7,0.8,5.4,1.6,7.9s2.1,4.6,3.8,6.4c1.7,1.7,4,2.6,7,2.6c2.9,0,5.3-0.9,7-2.6s3-3.9,3.8-6.4
				c0.9-2.5,1.4-5.1,1.6-7.9c0.2-2.7,0.4-5.2,0.4-7.2s-0.1-4.5-0.4-7.2c-0.2-2.7-0.8-5.4-1.6-7.9c-0.9-2.5-2.1-4.6-3.8-6.4
				C1972.2,1303.1,1969.9,1302.2,1967,1302.2z"/>
			<path class="st10" d="M1842.6,1479.1h-26v-5l24.3-37.4h6.9v38.2h8.9v4.3h-8.9v12.9h-5.2L1842.6,1479.1L1842.6,1479.1z
				 M1842.6,1441.8h-0.2l-21.4,33h21.6V1441.8z"/>
			<path class="st10" d="M1880.4,1435.4c3.8,0,6.9,0.8,9.2,2.5s4.2,3.9,5.6,6.6s2.3,5.8,2.8,9.3c0.5,3.4,0.8,6.9,0.8,10.4
				s-0.3,7-0.8,10.4s-1.4,6.5-2.8,9.3c-1.4,2.7-3.2,5-5.6,6.6c-2.4,1.7-5.5,2.5-9.2,2.5s-6.9-0.8-9.2-2.5c-2.4-1.7-4.2-3.9-5.6-6.6
				s-2.3-5.8-2.8-9.3c-0.5-3.4-0.8-6.9-0.8-10.4s0.3-7,0.8-10.4s1.4-6.5,2.8-9.3c1.4-2.7,3.2-5,5.6-6.6S1876.6,1435.4,1880.4,1435.4
				z M1880.4,1440.2c-2.9,0-5.3,0.9-7,2.6s-3,3.9-3.8,6.4c-0.9,2.5-1.4,5.1-1.6,7.9c-0.2,2.7-0.4,5.2-0.4,7.2s0.1,4.5,0.4,7.2
				c0.2,2.7,0.8,5.4,1.6,7.9c0.9,2.5,2.1,4.6,3.8,6.4c1.7,1.7,4,2.6,7,2.6c2.9,0,5.3-0.9,7-2.6s3-3.9,3.8-6.4
				c0.9-2.5,1.4-5.1,1.6-7.9c0.2-2.7,0.4-5.2,0.4-7.2s-0.1-4.5-0.4-7.2c-0.2-2.7-0.8-5.4-1.6-7.9c-0.9-2.5-2.1-4.6-3.8-6.4
				C1885.7,1441.1,1883.3,1440.2,1880.4,1440.2z"/>
			<path class="st10" d="M1923.7,1435.4c3.8,0,6.9,0.8,9.2,2.5c2.4,1.7,4.2,3.9,5.6,6.6s2.3,5.8,2.8,9.3c0.5,3.4,0.8,6.9,0.8,10.4
				s-0.3,7-0.8,10.4s-1.4,6.5-2.8,9.3c-1.4,2.7-3.2,5-5.6,6.6c-2.4,1.7-5.5,2.5-9.2,2.5c-3.8,0-6.9-0.8-9.2-2.5
				c-2.4-1.7-4.2-3.9-5.6-6.6s-2.3-5.8-2.8-9.3c-0.5-3.4-0.8-6.9-0.8-10.4s0.3-7,0.8-10.4s1.4-6.5,2.8-9.3c1.4-2.7,3.2-5,5.6-6.6
				C1916.8,1436.3,1919.9,1435.4,1923.7,1435.4z M1923.7,1440.2c-2.9,0-5.3,0.9-7,2.6s-3,3.9-3.8,6.4c-0.9,2.5-1.4,5.1-1.6,7.9
				c-0.2,2.7-0.4,5.2-0.4,7.2s0.1,4.5,0.4,7.2c0.2,2.7,0.8,5.4,1.6,7.9c0.9,2.5,2.1,4.6,3.8,6.4c1.7,1.7,4,2.6,7,2.6
				c2.9,0,5.3-0.9,7-2.6s3-3.9,3.8-6.4s1.4-5.1,1.6-7.9c0.2-2.7,0.4-5.2,0.4-7.2s-0.1-4.5-0.4-7.2c-0.2-2.7-0.8-5.4-1.6-7.9
				s-2.1-4.6-3.8-6.4C1928.9,1441.1,1926.6,1440.2,1923.7,1440.2z"/>
			<path class="st10" d="M1967,1435.4c3.8,0,6.9,0.8,9.2,2.5c2.4,1.7,4.2,3.9,5.6,6.6s2.3,5.8,2.8,9.3c0.5,3.4,0.8,6.9,0.8,10.4
				s-0.3,7-0.8,10.4s-1.4,6.5-2.8,9.3c-1.4,2.7-3.2,5-5.6,6.6c-2.4,1.7-5.5,2.5-9.2,2.5c-3.8,0-6.9-0.8-9.2-2.5
				c-2.4-1.7-4.2-3.9-5.6-6.6s-2.3-5.8-2.8-9.3c-0.5-3.4-0.8-6.9-0.8-10.4s0.3-7,0.8-10.4s1.4-6.5,2.8-9.3c1.4-2.7,3.2-5,5.6-6.6
				S1963.2,1435.4,1967,1435.4z M1967,1440.2c-2.9,0-5.3,0.9-7,2.6s-3,3.9-3.8,6.4s-1.4,5.1-1.6,7.9c-0.2,2.7-0.4,5.2-0.4,7.2
				s0.1,4.5,0.4,7.2c0.2,2.7,0.8,5.4,1.6,7.9s2.1,4.6,3.8,6.4c1.7,1.7,4,2.6,7,2.6c2.9,0,5.3-0.9,7-2.6s3-3.9,3.8-6.4
				c0.9-2.5,1.4-5.1,1.6-7.9c0.2-2.7,0.4-5.2,0.4-7.2s-0.1-4.5-0.4-7.2c-0.2-2.7-0.8-5.4-1.6-7.9c-0.9-2.5-2.1-4.6-3.8-6.4
				C1972.2,1441.1,1969.9,1440.2,1967,1440.2z"/>
			<path class="st10" d="M1833.3,1598.6c1.8,0.2,3.5,0.2,5.4-0.1c1.8-0.3,3.5-0.9,4.9-1.7c1.5-0.8,2.7-1.9,3.6-3.4s1.4-3.2,1.4-5.2
				c0-1.6-0.3-3-1-4.3s-1.6-2.3-2.7-3.1c-1.1-0.8-2.4-1.5-3.9-1.9c-1.5-0.5-3-0.7-4.6-0.7c-3.5,0-6.3,0.9-8.4,2.6s-3.3,4.2-3.7,7.4
				h-5.6c0-2.3,0.5-4.4,1.4-6.3s2.2-3.4,3.8-4.7c1.6-1.3,3.4-2.3,5.4-2.9c2-0.7,4.1-1,6.3-1c2.3,0,4.6,0.3,6.8,0.8
				c2.2,0.6,4.2,1.5,5.9,2.7c1.7,1.2,3.1,2.8,4.2,4.7c1.1,1.9,1.6,4.2,1.6,6.9c0,1.7-0.3,3.3-0.9,4.6c-0.6,1.4-1.4,2.6-2.4,3.6
				s-2.2,1.9-3.6,2.6s-2.8,1.2-4.4,1.6v0.2c1.8,0.4,3.4,1,4.9,1.8s2.8,1.8,3.8,3c1.1,1.2,1.9,2.6,2.5,4.1s0.9,3.3,0.9,5.1
				c0,2.6-0.5,4.9-1.6,6.9s-2.5,3.6-4.4,5c-1.8,1.4-3.9,2.4-6.1,3.1c-2.3,0.7-4.5,1-6.8,1c-2.5,0-4.8-0.3-6.9-1
				c-2.2-0.7-4.1-1.7-5.7-3c-1.7-1.3-3-2.9-4-4.9s-1.5-4.3-1.6-7h5.6c0,1.7,0.4,3.2,1.1,4.6s1.7,2.5,2.8,3.5c1.2,1,2.5,1.7,4,2.2
				s3,0.8,4.6,0.8c1.8,0,3.5-0.2,5.2-0.7s3.1-1.2,4.3-2.2c1.2-1,2.2-2.2,2.9-3.7c0.7-1.5,1.1-3.2,1.1-5.2c0-2.2-0.5-4.1-1.4-5.6
				c-1-1.5-2.2-2.7-3.8-3.6c-1.5-0.9-3.3-1.5-5.2-1.7c-1.9-0.3-3.8-0.3-5.8,0L1833.3,1598.6L1833.3,1598.6z"/>
			<path class="st10" d="M1880.4,1573.4c3.8,0,6.9,0.8,9.2,2.5s4.2,3.9,5.6,6.6s2.3,5.8,2.8,9.3c0.5,3.4,0.8,6.9,0.8,10.4
				s-0.3,7-0.8,10.4s-1.4,6.5-2.8,9.3c-1.4,2.7-3.2,5-5.6,6.6c-2.4,1.7-5.5,2.5-9.2,2.5s-6.9-0.8-9.2-2.5c-2.4-1.7-4.2-3.9-5.6-6.6
				s-2.3-5.8-2.8-9.3c-0.5-3.4-0.8-6.9-0.8-10.4s0.3-7,0.8-10.4s1.4-6.5,2.8-9.3c1.4-2.7,3.2-5,5.6-6.6S1876.6,1573.4,1880.4,1573.4
				z M1880.4,1578.2c-2.9,0-5.3,0.9-7,2.6s-3,3.9-3.8,6.4c-0.9,2.5-1.4,5.1-1.6,7.9c-0.2,2.7-0.4,5.2-0.4,7.2s0.1,4.5,0.4,7.2
				c0.2,2.7,0.8,5.4,1.6,7.9c0.9,2.5,2.1,4.6,3.8,6.4c1.7,1.7,4,2.6,7,2.6c2.9,0,5.3-0.9,7-2.6s3-3.9,3.8-6.4
				c0.9-2.5,1.4-5.1,1.6-7.9c0.2-2.7,0.4-5.2,0.4-7.2s-0.1-4.5-0.4-7.2c-0.2-2.7-0.8-5.4-1.6-7.9c-0.9-2.5-2.1-4.6-3.8-6.4
				C1885.7,1579.1,1883.3,1578.2,1880.4,1578.2z"/>
			<path class="st10" d="M1923.7,1573.4c3.8,0,6.9,0.8,9.2,2.5c2.4,1.7,4.2,3.9,5.6,6.6s2.3,5.8,2.8,9.3c0.5,3.4,0.8,6.9,0.8,10.4
				s-0.3,7-0.8,10.4s-1.4,6.5-2.8,9.3c-1.4,2.7-3.2,5-5.6,6.6c-2.4,1.7-5.5,2.5-9.2,2.5c-3.8,0-6.9-0.8-9.2-2.5
				c-2.4-1.7-4.2-3.9-5.6-6.6s-2.3-5.8-2.8-9.3c-0.5-3.4-0.8-6.9-0.8-10.4s0.3-7,0.8-10.4s1.4-6.5,2.8-9.3c1.4-2.7,3.2-5,5.6-6.6
				C1916.8,1574.3,1919.9,1573.4,1923.7,1573.4z M1923.7,1578.2c-2.9,0-5.3,0.9-7,2.6s-3,3.9-3.8,6.4c-0.9,2.5-1.4,5.1-1.6,7.9
				c-0.2,2.7-0.4,5.2-0.4,7.2s0.1,4.5,0.4,7.2c0.2,2.7,0.8,5.4,1.6,7.9c0.9,2.5,2.1,4.6,3.8,6.4c1.7,1.7,4,2.6,7,2.6
				c2.9,0,5.3-0.9,7-2.6s3-3.9,3.8-6.4s1.4-5.1,1.6-7.9c0.2-2.7,0.4-5.2,0.4-7.2s-0.1-4.5-0.4-7.2c-0.2-2.7-0.8-5.4-1.6-7.9
				s-2.1-4.6-3.8-6.4C1928.9,1579.1,1926.6,1578.2,1923.7,1578.2z"/>
			<path class="st10" d="M1967,1573.4c3.8,0,6.9,0.8,9.2,2.5c2.4,1.7,4.2,3.9,5.6,6.6s2.3,5.8,2.8,9.3c0.5,3.4,0.8,6.9,0.8,10.4
				s-0.3,7-0.8,10.4s-1.4,6.5-2.8,9.3c-1.4,2.7-3.2,5-5.6,6.6c-2.4,1.7-5.5,2.5-9.2,2.5c-3.8,0-6.9-0.8-9.2-2.5
				c-2.4-1.7-4.2-3.9-5.6-6.6s-2.3-5.8-2.8-9.3c-0.5-3.4-0.8-6.9-0.8-10.4s0.3-7,0.8-10.4s1.4-6.5,2.8-9.3c1.4-2.7,3.2-5,5.6-6.6
				S1963.2,1573.4,1967,1573.4z M1967,1578.2c-2.9,0-5.3,0.9-7,2.6s-3,3.9-3.8,6.4s-1.4,5.1-1.6,7.9c-0.2,2.7-0.4,5.2-0.4,7.2
				s0.1,4.5,0.4,7.2c0.2,2.7,0.8,5.4,1.6,7.9s2.1,4.6,3.8,6.4c1.7,1.7,4,2.6,7,2.6c2.9,0,5.3-0.9,7-2.6s3-3.9,3.8-6.4
				c0.9-2.5,1.4-5.1,1.6-7.9c0.2-2.7,0.4-5.2,0.4-7.2s-0.1-4.5-0.4-7.2c-0.2-2.7-0.8-5.4-1.6-7.9c-0.9-2.5-2.1-4.6-3.8-6.4
				C1972.2,1579.1,1969.9,1578.2,1967,1578.2z"/>
			<path class="st10" d="M1818.9,1768v-5.4c1.2-1.1,2.7-2.5,4.6-4.2c1.9-1.8,3.9-3.7,6-5.9c2.1-2.2,4.2-4.4,6.4-6.8
				c2.1-2.4,4.1-4.8,5.8-7.1c1.7-2.3,3.1-4.6,4.2-6.7s1.6-4,1.6-5.7c0-1.6-0.3-3-0.9-4.2s-1.4-2.3-2.4-3.1c-1-0.8-2.2-1.5-3.6-1.9
				s-2.8-0.6-4.3-0.6c-1.7,0-3.2,0.3-4.6,0.8s-2.6,1.3-3.6,2.3s-1.7,2.2-2.3,3.5c-0.5,1.4-0.8,2.8-0.8,4.4h-5.6
				c0-2.5,0.4-4.7,1.3-6.6s2-3.6,3.6-5c1.5-1.4,3.3-2.4,5.4-3.2c2.1-0.7,4.3-1.1,6.7-1.1c2.2,0,4.4,0.3,6.4,0.9s3.8,1.5,5.3,2.7
				s2.7,2.7,3.6,4.5s1.3,3.9,1.3,6.3c0,2.1-0.5,4.4-1.5,6.7c-1,2.3-2.3,4.6-3.8,7c-1.6,2.3-3.4,4.6-5.4,6.8s-4.1,4.4-6.1,6.4
				c-2.1,2.1-4,4-6,5.8c-1.9,1.8-3.6,3.4-5,4.8h28.6v4.8h-34.9L1818.9,1768L1818.9,1768z"/>
			<path class="st10" d="M1880.4,1711.4c3.8,0,6.9,0.8,9.2,2.5s4.2,3.9,5.6,6.6s2.3,5.8,2.8,9.3c0.5,3.4,0.8,6.9,0.8,10.4
				s-0.3,7-0.8,10.4s-1.4,6.5-2.8,9.3c-1.4,2.7-3.2,5-5.6,6.6c-2.4,1.7-5.5,2.5-9.2,2.5s-6.9-0.8-9.2-2.5c-2.4-1.7-4.2-3.9-5.6-6.6
				s-2.3-5.8-2.8-9.3c-0.5-3.4-0.8-6.9-0.8-10.4s0.3-7,0.8-10.4s1.4-6.5,2.8-9.3c1.4-2.7,3.2-5,5.6-6.6S1876.6,1711.4,1880.4,1711.4
				z M1880.4,1716.2c-2.9,0-5.3,0.9-7,2.6s-3,3.9-3.8,6.4c-0.9,2.5-1.4,5.1-1.6,7.9c-0.2,2.7-0.4,5.2-0.4,7.2s0.1,4.5,0.4,7.2
				c0.2,2.7,0.8,5.4,1.6,7.9c0.9,2.5,2.1,4.6,3.8,6.4c1.7,1.7,4,2.6,7,2.6c2.9,0,5.3-0.9,7-2.6s3-3.9,3.8-6.4
				c0.9-2.5,1.4-5.1,1.6-7.9c0.2-2.7,0.4-5.2,0.4-7.2s-0.1-4.5-0.4-7.2c-0.2-2.7-0.8-5.4-1.6-7.9c-0.9-2.5-2.1-4.6-3.8-6.4
				C1885.7,1717.1,1883.3,1716.2,1880.4,1716.2z"/>
			<path class="st10" d="M1923.7,1711.4c3.8,0,6.9,0.8,9.2,2.5c2.4,1.7,4.2,3.9,5.6,6.6s2.3,5.8,2.8,9.3c0.5,3.4,0.8,6.9,0.8,10.4
				s-0.3,7-0.8,10.4s-1.4,6.5-2.8,9.3c-1.4,2.7-3.2,5-5.6,6.6c-2.4,1.7-5.5,2.5-9.2,2.5c-3.8,0-6.9-0.8-9.2-2.5
				c-2.4-1.7-4.2-3.9-5.6-6.6s-2.3-5.8-2.8-9.3c-0.5-3.4-0.8-6.9-0.8-10.4s0.3-7,0.8-10.4s1.4-6.5,2.8-9.3c1.4-2.7,3.2-5,5.6-6.6
				C1916.8,1712.3,1919.9,1711.4,1923.7,1711.4z M1923.7,1716.2c-2.9,0-5.3,0.9-7,2.6s-3,3.9-3.8,6.4c-0.9,2.5-1.4,5.1-1.6,7.9
				c-0.2,2.7-0.4,5.2-0.4,7.2s0.1,4.5,0.4,7.2c0.2,2.7,0.8,5.4,1.6,7.9c0.9,2.5,2.1,4.6,3.8,6.4c1.7,1.7,4,2.6,7,2.6
				c2.9,0,5.3-0.9,7-2.6s3-3.9,3.8-6.4s1.4-5.1,1.6-7.9c0.2-2.7,0.4-5.2,0.4-7.2s-0.1-4.5-0.4-7.2c-0.2-2.7-0.8-5.4-1.6-7.9
				s-2.1-4.6-3.8-6.4C1928.9,1717.1,1926.6,1716.2,1923.7,1716.2z"/>
			<path class="st10" d="M1967,1711.4c3.8,0,6.9,0.8,9.2,2.5c2.4,1.7,4.2,3.9,5.6,6.6s2.3,5.8,2.8,9.3c0.5,3.4,0.8,6.9,0.8,10.4
				s-0.3,7-0.8,10.4s-1.4,6.5-2.8,9.3c-1.4,2.7-3.2,5-5.6,6.6c-2.4,1.7-5.5,2.5-9.2,2.5c-3.8,0-6.9-0.8-9.2-2.5
				c-2.4-1.7-4.2-3.9-5.6-6.6s-2.3-5.8-2.8-9.3c-0.5-3.4-0.8-6.9-0.8-10.4s0.3-7,0.8-10.4s1.4-6.5,2.8-9.3c1.4-2.7,3.2-5,5.6-6.6
				S1963.2,1711.4,1967,1711.4z M1967,1716.2c-2.9,0-5.3,0.9-7,2.6s-3,3.9-3.8,6.4s-1.4,5.1-1.6,7.9c-0.2,2.7-0.4,5.2-0.4,7.2
				s0.1,4.5,0.4,7.2c0.2,2.7,0.8,5.4,1.6,7.9s2.1,4.6,3.8,6.4c1.7,1.7,4,2.6,7,2.6c2.9,0,5.3-0.9,7-2.6s3-3.9,3.8-6.4
				c0.9-2.5,1.4-5.1,1.6-7.9c0.2-2.7,0.4-5.2,0.4-7.2s-0.1-4.5-0.4-7.2c-0.2-2.7-0.8-5.4-1.6-7.9c-0.9-2.5-2.1-4.6-3.8-6.4
				C1972.2,1717.1,1969.9,1716.2,1967,1716.2z"/>
			<path class="st10" d="M1824.2,1859.3c2.4-1,4.7-2.2,6.8-3.7c2.1-1.5,4.1-3.2,5.9-5h5v55.4h-5.2v-49.8c-1.9,1.8-3.9,3.3-6,4.7
				c-2.1,1.4-4.3,2.6-6.5,3.6L1824.2,1859.3L1824.2,1859.3z"/>
			<path class="st10" d="M1880.4,1849.4c3.8,0,6.9,0.8,9.2,2.5s4.2,3.9,5.6,6.6s2.3,5.8,2.8,9.3c0.5,3.4,0.8,6.9,0.8,10.4
				s-0.3,7-0.8,10.4s-1.4,6.5-2.8,9.3c-1.4,2.7-3.2,5-5.6,6.6c-2.4,1.7-5.5,2.5-9.2,2.5s-6.9-0.8-9.2-2.5c-2.4-1.7-4.2-3.9-5.6-6.6
				s-2.3-5.8-2.8-9.3c-0.5-3.4-0.8-6.9-0.8-10.4s0.3-7,0.8-10.4s1.4-6.5,2.8-9.3c1.4-2.7,3.2-5,5.6-6.6S1876.6,1849.4,1880.4,1849.4
				z M1880.4,1854.2c-2.9,0-5.3,0.9-7,2.6s-3,3.9-3.8,6.4c-0.9,2.5-1.4,5.1-1.6,7.9c-0.2,2.7-0.4,5.2-0.4,7.2s0.1,4.5,0.4,7.2
				c0.2,2.7,0.8,5.4,1.6,7.9c0.9,2.5,2.1,4.6,3.8,6.4c1.7,1.7,4,2.6,7,2.6c2.9,0,5.3-0.9,7-2.6s3-3.9,3.8-6.4
				c0.9-2.5,1.4-5.1,1.6-7.9c0.2-2.7,0.4-5.2,0.4-7.2s-0.1-4.5-0.4-7.2c-0.2-2.7-0.8-5.4-1.6-7.9c-0.9-2.5-2.1-4.6-3.8-6.4
				C1885.7,1855.1,1883.3,1854.2,1880.4,1854.2z"/>
			<path class="st10" d="M1923.7,1849.4c3.8,0,6.9,0.8,9.2,2.5c2.4,1.7,4.2,3.9,5.6,6.6s2.3,5.8,2.8,9.3c0.5,3.4,0.8,6.9,0.8,10.4
				s-0.3,7-0.8,10.4s-1.4,6.5-2.8,9.3c-1.4,2.7-3.2,5-5.6,6.6c-2.4,1.7-5.5,2.5-9.2,2.5c-3.8,0-6.9-0.8-9.2-2.5
				c-2.4-1.7-4.2-3.9-5.6-6.6s-2.3-5.8-2.8-9.3c-0.5-3.4-0.8-6.9-0.8-10.4s0.3-7,0.8-10.4s1.4-6.5,2.8-9.3c1.4-2.7,3.2-5,5.6-6.6
				C1916.8,1850.3,1919.9,1849.4,1923.7,1849.4z M1923.7,1854.2c-2.9,0-5.3,0.9-7,2.6s-3,3.9-3.8,6.4c-0.9,2.5-1.4,5.1-1.6,7.9
				c-0.2,2.7-0.4,5.2-0.4,7.2s0.1,4.5,0.4,7.2c0.2,2.7,0.8,5.4,1.6,7.9c0.9,2.5,2.1,4.6,3.8,6.4c1.7,1.7,4,2.6,7,2.6
				c2.9,0,5.3-0.9,7-2.6s3-3.9,3.8-6.4s1.4-5.1,1.6-7.9c0.2-2.7,0.4-5.2,0.4-7.2s-0.1-4.5-0.4-7.2c-0.2-2.7-0.8-5.4-1.6-7.9
				s-2.1-4.6-3.8-6.4C1928.9,1855.1,1926.6,1854.2,1923.7,1854.2z"/>
			<path class="st10" d="M1967,1849.4c3.8,0,6.9,0.8,9.2,2.5c2.4,1.7,4.2,3.9,5.6,6.6s2.3,5.8,2.8,9.3c0.5,3.4,0.8,6.9,0.8,10.4
				s-0.3,7-0.8,10.4s-1.4,6.5-2.8,9.3c-1.4,2.7-3.2,5-5.6,6.6c-2.4,1.7-5.5,2.5-9.2,2.5c-3.8,0-6.9-0.8-9.2-2.5
				c-2.4-1.7-4.2-3.9-5.6-6.6s-2.3-5.8-2.8-9.3c-0.5-3.4-0.8-6.9-0.8-10.4s0.3-7,0.8-10.4s1.4-6.5,2.8-9.3c1.4-2.7,3.2-5,5.6-6.6
				S1963.2,1849.4,1967,1849.4z M1967,1854.2c-2.9,0-5.3,0.9-7,2.6s-3,3.9-3.8,6.4s-1.4,5.1-1.6,7.9c-0.2,2.7-0.4,5.2-0.4,7.2
				s0.1,4.5,0.4,7.2c0.2,2.7,0.8,5.4,1.6,7.9s2.1,4.6,3.8,6.4c1.7,1.7,4,2.6,7,2.6c2.9,0,5.3-0.9,7-2.6s3-3.9,3.8-6.4
				c0.9-2.5,1.4-5.1,1.6-7.9c0.2-2.7,0.4-5.2,0.4-7.2s-0.1-4.5-0.4-7.2c-0.2-2.7-0.8-5.4-1.6-7.9c-0.9-2.5-2.1-4.6-3.8-6.4
				C1972.2,1855.1,1969.9,1854.2,1967,1854.2z"/>
			<path class="st10" d="M1967,1987.4c3.8,0,6.9,0.8,9.2,2.5c2.4,1.7,4.2,3.9,5.6,6.6s2.3,5.8,2.8,9.3c0.5,3.4,0.8,6.9,0.8,10.4
				s-0.3,7-0.8,10.4s-1.4,6.5-2.8,9.3c-1.4,2.7-3.2,5-5.6,6.6c-2.4,1.7-5.5,2.5-9.2,2.5c-3.8,0-6.9-0.8-9.2-2.5
				c-2.4-1.7-4.2-3.9-5.6-6.6s-2.3-5.8-2.8-9.3c-0.5-3.4-0.8-6.9-0.8-10.4s0.3-7,0.8-10.4s1.4-6.5,2.8-9.3c1.4-2.7,3.2-5,5.6-6.6
				S1963.2,1987.4,1967,1987.4z M1967,1992.2c-2.9,0-5.3,0.9-7,2.6s-3,3.9-3.8,6.4s-1.4,5.1-1.6,7.9c-0.2,2.7-0.4,5.2-0.4,7.2
				s0.1,4.5,0.4,7.2c0.2,2.7,0.8,5.4,1.6,7.9s2.1,4.6,3.8,6.4c1.7,1.7,4,2.6,7,2.6c2.9,0,5.3-0.9,7-2.6s3-3.9,3.8-6.4
				c0.9-2.5,1.4-5.1,1.6-7.9c0.2-2.7,0.4-5.2,0.4-7.2s-0.1-4.5-0.4-7.2c-0.2-2.7-0.8-5.4-1.6-7.9c-0.9-2.5-2.1-4.6-3.8-6.4
				C1972.2,1993.1,1969.9,1992.2,1967,1992.2z"/>
		</g>
	</g>
	<g>
		<rect x="1721" y="2407.5" class="st13" width="172" height="20.5"/>
	</g>
	<g class="st14">
		<path class="st10" d="M33.9,2036.5h5.7c0,3.4,1.2,6,3.5,7.7c2.1,1.6,5,2.3,8.7,2.3c5.6,0,9.6-3.3,12-10c1.5-4.3,2.3-9.8,2.3-16.4
			c-1.5,2.7-3.5,4.8-6.2,6.3c-2.6,1.5-5.6,2.3-8.8,2.3c-5,0-9.1-1.6-12.3-4.9c-3.2-3.3-4.8-7.4-4.8-12.5c0-5.4,1.6-9.8,4.9-13.2
			c3.3-3.4,7.6-5.1,13-5.1c7.4,0,12.8,2.9,16,8.6c2.6,4.6,3.9,10.9,3.9,19.1c0,9.1-1.3,16.1-3.9,21c-3.4,6.5-9.2,9.7-17.5,9.7
			c-5,0-9-1.4-12-4.1C35.4,2044.5,33.9,2041,33.9,2036.5z M51.9,1997.9c-4,0-7,1.3-9.1,3.8c-2.1,2.6-3.2,5.9-3.2,10
			c0,3.7,1.1,6.7,3.2,9.1c2.2,2.3,5.1,3.5,8.7,3.5c3.9,0,7.1-1.3,9.7-3.8c2.6-2.5,3.8-5.7,3.8-9.5c0-3.8-1.2-7-3.7-9.4
			C58.9,1999.1,55.8,1997.9,51.9,1997.9z"/>
		<path class="st10" d="M114.5,2050.3H79.3v-5.5c3.9-3.5,7.5-6.9,10.7-10.2c5.3-5.5,9.4-10.1,12.3-14.1c3.9-5.3,5.8-9.6,5.8-12.6
			c0-3.2-1.1-5.6-3.2-7.4c-2.1-1.7-4.8-2.6-8.1-2.6c-3.3,0-6.1,1-8.2,3.1c-2.1,2.1-3.2,4.8-3.2,8.1h-5.7c0-4.9,1.6-8.7,4.9-11.7
			s7.3-4.4,12.3-4.4c4.8,0,8.7,1.2,11.7,3.6c3.3,2.6,5,6.2,5,10.9c0,4-1.8,8.6-5.4,13.8c-2.7,3.8-6.6,8.3-11.7,13.4
			c-3.7,3.6-7.5,7.1-11.2,10.7h29V2050.3z"/>
	</g>
	<g class="st14">
		<path class="st10" d="M150.5,2036.5h5.7c0,3.4,1.2,6,3.5,7.7c2.1,1.6,5,2.3,8.7,2.3c5.6,0,9.6-3.3,12-10c1.5-4.3,2.3-9.8,2.3-16.4
			c-1.5,2.7-3.5,4.8-6.2,6.3c-2.6,1.5-5.6,2.3-8.8,2.3c-5,0-9.1-1.6-12.3-4.9c-3.2-3.3-4.8-7.4-4.8-12.5c0-5.4,1.6-9.8,4.9-13.2
			c3.3-3.4,7.6-5.1,13-5.1c7.4,0,12.8,2.9,16,8.6c2.6,4.6,3.9,10.9,3.9,19.1c0,9.1-1.3,16.1-3.9,21c-3.4,6.5-9.2,9.7-17.5,9.7
			c-5,0-9-1.4-12-4.1C152,2044.5,150.5,2041,150.5,2036.5z M168.5,1997.9c-4,0-7,1.3-9.1,3.8c-2.1,2.6-3.2,5.9-3.2,10
			c0,3.7,1.1,6.7,3.2,9.1c2.2,2.3,5.1,3.5,8.7,3.5c3.9,0,7.1-1.3,9.7-3.8c2.6-2.5,3.8-5.7,3.8-9.5c0-3.8-1.2-7-3.7-9.4
			C175.6,1999.1,172.4,1997.9,168.5,1997.9z"/>
		<path class="st10" d="M220,2050.3v-13h-26.3l0-5.1l24.6-38h7v38.7h9v4.4h-9v13H220z M220,2032.9v-33.4l-21.9,33.4H220z"/>
	</g>
	<g class="st14">
		<path class="st10" d="M275.5,2036.5h5.7c0,3.4,1.2,6,3.5,7.7c2.1,1.6,5,2.3,8.7,2.3c5.6,0,9.6-3.3,12-10c1.5-4.3,2.3-9.8,2.3-16.4
			c-1.5,2.7-3.5,4.8-6.2,6.3c-2.6,1.5-5.6,2.3-8.8,2.3c-5,0-9.1-1.6-12.3-4.9c-3.2-3.3-4.8-7.4-4.8-12.5c0-5.4,1.6-9.8,4.9-13.2
			c3.3-3.4,7.6-5.1,13-5.1c7.4,0,12.8,2.9,16,8.6c2.6,4.6,3.9,10.9,3.9,19.1c0,9.1-1.3,16.1-3.9,21c-3.4,6.5-9.2,9.7-17.5,9.7
			c-5,0-9-1.4-12-4.1C277,2044.5,275.5,2041,275.5,2036.5z M293.5,1997.9c-4,0-7,1.3-9.1,3.8c-2.1,2.6-3.2,5.9-3.2,10
			c0,3.7,1.1,6.7,3.2,9.1c2.2,2.3,5.1,3.5,8.7,3.5c3.9,0,7.1-1.3,9.7-3.8c2.6-2.5,3.8-5.7,3.8-9.5c0-3.8-1.2-7-3.7-9.4
			C300.6,1999.1,297.4,1997.9,293.5,1997.9z"/>
		<path class="st10" d="M341,1993c4.9,0,8.8,1.2,11.7,3.5c3.2,2.5,4.9,6.2,4.9,10.8h-5.7c0-2.8-1-5.1-3.1-6.8
			c-2.1-1.8-4.6-2.6-7.6-2.6c-6,0-10.2,2.9-12.6,8.6c-1.6,3.9-2.4,9.4-2.4,16.6c1.3-3,3.3-5.2,5.9-6.8c2.6-1.6,5.6-2.3,9-2.3
			c5.3,0,9.6,1.8,12.7,5.3c3,3.3,4.5,7.8,4.5,13.3s-1.6,10-4.8,13.6c-3.2,3.6-7.5,5.4-12.9,5.4c-7.2,0-12.5-2.7-15.9-8.1
			c-2.8-4.5-4.2-10.6-4.2-18.3c0-5.9,0.4-10.8,1.2-14.6c1.1-5.3,3-9.4,5.7-12.2C330.8,1994.7,335.3,1993,341,1993z M340.9,2018.4
			c-4.3,0-7.7,1.4-10.1,4.2c-2.4,2.8-3.6,6.3-3.6,10.6c0,3.6,1.2,6.7,3.6,9.4c2.4,2.7,5.4,4,9,4c4,0,7.2-1.3,9.4-3.8
			c2.2-2.6,3.4-5.9,3.4-10c0-4.1-0.9-7.4-2.7-9.9C347.8,2019.8,344.8,2018.4,340.9,2018.4z"/>
	</g>
	<g class="st14">
		<path class="st10" d="M403.3,2036.5h5.7c0,3.4,1.2,6,3.5,7.7c2.1,1.6,5,2.3,8.7,2.3c5.6,0,9.6-3.3,12-10c1.5-4.3,2.3-9.8,2.3-16.4
			c-1.5,2.7-3.5,4.8-6.2,6.3c-2.6,1.5-5.6,2.3-8.8,2.3c-5,0-9.1-1.6-12.3-4.9c-3.2-3.3-4.8-7.4-4.8-12.5c0-5.4,1.6-9.8,4.9-13.2
			c3.3-3.4,7.6-5.1,13-5.1c7.4,0,12.8,2.9,16,8.6c2.6,4.6,3.9,10.9,3.9,19.1c0,9.1-1.3,16.1-3.9,21c-3.4,6.5-9.2,9.7-17.5,9.7
			c-5,0-9-1.4-12-4.1C404.8,2044.5,403.3,2041,403.3,2036.5z M421.3,1997.9c-4,0-7,1.3-9.1,3.8c-2.1,2.6-3.2,5.9-3.2,10
			c0,3.7,1.1,6.7,3.2,9.1c2.2,2.3,5.1,3.5,8.7,3.5c3.9,0,7.1-1.3,9.7-3.8c2.6-2.5,3.8-5.7,3.8-9.5c0-3.8-1.2-7-3.7-9.4
			C428.3,1999.1,425.2,1997.9,421.3,1997.9z"/>
		<path class="st10" d="M460.4,2021.2c-3.3-0.4-6-1.8-8.2-4.3c-2.2-2.5-3.2-5.4-3.2-8.8c0-4.9,1.9-8.7,5.7-11.4
			c3.3-2.4,7.5-3.6,12.5-3.6c4.9,0,9.1,1.2,12.5,3.6c3.8,2.8,5.7,6.6,5.7,11.4c0,3.3-1,6.1-3.1,8.4c-2.1,2.3-4.8,3.8-8.1,4.6
			c3.8,1,6.8,2.7,8.9,5c2.1,2.3,3.2,5.3,3.2,9c0,5.3-2,9.4-6,12.4c-3.5,2.6-7.9,4-13,4c-5.1,0-9.5-1.3-13-4c-4-3-6-7.1-6-12.4
			c0-3.6,1.1-6.6,3.3-9C453.6,2023.6,456.6,2022,460.4,2021.2z M453.8,2035c0,3.8,1.3,6.7,4,8.7c2.5,1.9,5.6,2.8,9.3,2.8
			c3.8,0,6.9-0.9,9.3-2.7c2.7-2,4-5,4-8.8c0-3.8-1.3-6.6-3.9-8.6c-2.6-2-5.7-2.9-9.5-2.9c-3.8,0-6.9,0.9-9.3,2.7
			C455.2,2028.2,453.8,2031.2,453.8,2035z M454.2,2008.1c0,3.4,1.2,6,3.6,7.8c2.4,1.8,5.5,2.7,9.4,2.7c3.9,0,7-0.9,9.2-2.6
			c2.5-1.9,3.7-4.5,3.7-7.9c0-3.5-1.4-6.2-4.1-8.1c-2.4-1.7-5.3-2.5-8.8-2.5c-3.5,0-6.5,0.8-8.8,2.4
			C455.6,2001.8,454.2,2004.5,454.2,2008.1z"/>
	</g>
	<g class="st14">
		<path class="st10" d="M562.4,1993c7,0,12,3.1,15.1,9.2c2.4,4.8,3.6,11.5,3.6,20c0,8.5-1.2,15.1-3.6,19.9
			c-3.1,6.2-8.1,9.3-15.1,9.3s-12-3.1-15.1-9.2c-2.4-4.8-3.6-11.5-3.6-20c0-8.5,1.2-15.1,3.6-19.9
			C550.4,1996.1,555.4,1993,562.4,1993z M562.4,1997.9c-5.2,0-8.8,3-10.9,9.1c-1.3,3.9-2,9-2,15.3c0,6.4,0.6,11.5,1.9,15.3
			c2.1,6,5.8,9.1,11,9.1c5.2,0,8.8-3,10.9-9.1c1.3-3.9,2-9,2-15.3c0-6.4-0.6-11.5-1.9-15.3C571.3,2000.9,567.6,1997.9,562.4,1997.9z
			"/>
		<path class="st10" d="M609,1993c7,0,12,3.1,15.1,9.2c2.4,4.8,3.6,11.5,3.6,20c0,8.5-1.2,15.1-3.6,19.9c-3.1,6.2-8.1,9.3-15.1,9.3
			s-12-3.1-15.1-9.2c-2.4-4.8-3.6-11.5-3.6-20c0-8.5,1.2-15.1,3.6-19.9C597.1,1996.1,602.1,1993,609,1993z M609,1997.9
			c-5.2,0-8.8,3-10.9,9.1c-1.3,3.9-2,9-2,15.3c0,6.4,0.6,11.5,1.9,15.3c2.1,6,5.8,9.1,11,9.1c5.2,0,8.8-3,10.9-9.1
			c1.3-3.9,2-9,2-15.3c0-6.4-0.6-11.5-1.9-15.3C618,2000.9,614.3,1997.9,609,1997.9z"/>
	</g>
	<g class="st14">
		<path class="st10" d="M690.3,1993c7,0,12,3.1,15.1,9.2c2.4,4.8,3.6,11.5,3.6,20c0,8.5-1.2,15.1-3.6,19.9
			c-3.1,6.2-8.1,9.3-15.1,9.3c-7,0-12-3.1-15.1-9.2c-2.4-4.8-3.6-11.5-3.6-20c0-8.5,1.2-15.1,3.6-19.9
			C678.3,1996.1,683.3,1993,690.3,1993z M690.3,1997.9c-5.2,0-8.8,3-10.9,9.1c-1.3,3.9-2,9-2,15.3c0,6.4,0.6,11.5,1.9,15.3
			c2.1,6,5.8,9.1,11,9.1c5.2,0,8.8-3,10.9-9.1c1.3-3.9,2-9,2-15.3c0-6.4-0.6-11.5-1.9-15.3C699.2,2000.9,695.5,1997.9,690.3,1997.9z
			"/>
		<path class="st10" d="M752,2050.3h-35.2v-5.5c3.9-3.5,7.5-6.9,10.7-10.2c5.3-5.5,9.4-10.1,12.3-14.1c3.9-5.3,5.8-9.6,5.8-12.6
			c0-3.2-1.1-5.6-3.2-7.4c-2.1-1.7-4.8-2.6-8.1-2.6c-3.3,0-6.1,1-8.2,3.1c-2.1,2.1-3.2,4.8-3.2,8.1h-5.7c0-4.9,1.6-8.7,4.9-11.7
			c3.2-2.9,7.3-4.4,12.3-4.4c4.8,0,8.7,1.2,11.7,3.6c3.3,2.6,5,6.2,5,10.9c0,4-1.8,8.6-5.4,13.8c-2.7,3.8-6.6,8.3-11.7,13.4
			c-3.7,3.6-7.5,7.1-11.2,10.7h29V2050.3z"/>
	</g>
	<g class="st14">
		<path class="st10" d="M829.4,1993c7,0,12,3.1,15.1,9.2c2.4,4.8,3.6,11.5,3.6,20c0,8.5-1.2,15.1-3.6,19.9
			c-3.1,6.2-8.1,9.3-15.1,9.3s-12-3.1-15.1-9.2c-2.4-4.8-3.6-11.5-3.6-20c0-8.5,1.2-15.1,3.6-19.9
			C817.4,1996.1,822.4,1993,829.4,1993z M829.4,1997.9c-5.2,0-8.8,3-10.9,9.1c-1.3,3.9-2,9-2,15.3c0,6.4,0.6,11.5,1.9,15.3
			c2.1,6,5.8,9.1,11,9.1c5.2,0,8.8-3,10.9-9.1c1.3-3.9,2-9,2-15.3c0-6.4-0.6-11.5-1.9-15.3C838.3,2000.9,834.6,1997.9,829.4,1997.9z
			"/>
		<path class="st10" d="M880,2050.3v-13h-26.3l0-5.1l24.6-38h7v38.7h9v4.4h-9v13H880z M880,2032.9v-33.4l-21.9,33.4H880z"/>
	</g>
	<g class="st14">
		<path class="st10" d="M958.8,1993c7,0,12,3.1,15.1,9.2c2.4,4.8,3.6,11.5,3.6,20c0,8.5-1.2,15.1-3.6,19.9
			c-3.1,6.2-8.1,9.3-15.1,9.3s-12-3.1-15.1-9.2c-2.4-4.8-3.6-11.5-3.6-20c0-8.5,1.2-15.1,3.6-19.9
			C946.8,1996.1,951.8,1993,958.8,1993z M958.8,1997.9c-5.2,0-8.8,3-10.9,9.1c-1.3,3.9-2,9-2,15.3c0,6.4,0.6,11.5,1.9,15.3
			c2.1,6,5.8,9.1,11,9.1c5.2,0,8.8-3,10.9-9.1c1.3-3.9,2-9,2-15.3c0-6.4-0.6-11.5-1.9-15.3C967.7,2000.9,964,1997.9,958.8,1997.9z"
			/>
		<path class="st10" d="M1005.4,1993c4.9,0,8.8,1.2,11.7,3.5c3.2,2.5,4.9,6.2,4.9,10.8h-5.7c0-2.8-1-5.1-3.1-6.8
			c-2.1-1.8-4.6-2.6-7.6-2.6c-6,0-10.2,2.9-12.6,8.6c-1.6,3.9-2.4,9.4-2.4,16.6c1.3-3,3.3-5.2,5.9-6.8c2.6-1.6,5.6-2.3,9-2.3
			c5.3,0,9.6,1.8,12.7,5.3c3,3.3,4.5,7.8,4.5,13.3s-1.6,10-4.8,13.6c-3.2,3.6-7.5,5.4-12.9,5.4c-7.2,0-12.5-2.7-15.9-8.1
			c-2.8-4.5-4.2-10.6-4.2-18.3c0-5.9,0.4-10.8,1.2-14.6c1.1-5.3,3-9.4,5.7-12.2C995.2,1994.7,999.7,1993,1005.4,1993z
			 M1005.3,2018.4c-4.3,0-7.7,1.4-10.1,4.2c-2.4,2.8-3.6,6.3-3.6,10.6c0,3.6,1.2,6.7,3.6,9.4c2.4,2.7,5.4,4,9,4c4,0,7.2-1.3,9.4-3.8
			c2.2-2.6,3.4-5.9,3.4-10c0-4.1-0.9-7.4-2.7-9.9C1012.3,2019.8,1009.2,2018.4,1005.3,2018.4z"/>
	</g>
	<g class="st14">
		<path class="st10" d="M1092.8,1993c7,0,12,3.1,15.1,9.2c2.4,4.8,3.6,11.5,3.6,20c0,8.5-1.2,15.1-3.6,19.9
			c-3.1,6.2-8.1,9.3-15.1,9.3c-7,0-12-3.1-15.1-9.2c-2.4-4.8-3.6-11.5-3.6-20c0-8.5,1.2-15.1,3.6-19.9
			C1080.8,1996.1,1085.8,1993,1092.8,1993z M1092.8,1997.9c-5.2,0-8.8,3-10.9,9.1c-1.3,3.9-2,9-2,15.3c0,6.4,0.6,11.5,1.9,15.3
			c2.1,6,5.8,9.1,11,9.1c5.2,0,8.8-3,10.9-9.1c1.3-3.9,2-9,2-15.3c0-6.4-0.6-11.5-1.9-15.3C1101.7,2000.9,1098,1997.9,1092.8,1997.9
			z"/>
		<path class="st10" d="M1131,2021.2c-3.3-0.4-6-1.8-8.2-4.3c-2.2-2.5-3.2-5.4-3.2-8.8c0-4.9,1.9-8.7,5.7-11.4
			c3.3-2.4,7.5-3.6,12.5-3.6c4.9,0,9.1,1.2,12.5,3.6c3.8,2.8,5.7,6.6,5.7,11.4c0,3.3-1,6.1-3.1,8.4c-2.1,2.3-4.8,3.8-8.1,4.6
			c3.8,1,6.8,2.7,8.9,5s3.2,5.3,3.2,9c0,5.3-2,9.4-6,12.4c-3.5,2.6-7.9,4-13,4c-5.1,0-9.5-1.3-13-4c-4-3-6-7.1-6-12.4
			c0-3.6,1.1-6.6,3.3-9C1124.3,2023.6,1127.2,2022,1131,2021.2z M1124.5,2035c0,3.8,1.3,6.7,4,8.7c2.5,1.9,5.6,2.8,9.3,2.8
			c3.8,0,6.9-0.9,9.3-2.7c2.7-2,4-5,4-8.8c0-3.8-1.3-6.6-3.9-8.6c-2.6-2-5.7-2.9-9.5-2.9c-3.8,0-6.9,0.9-9.3,2.7
			C1125.8,2028.2,1124.5,2031.2,1124.5,2035z M1124.9,2008.1c0,3.4,1.2,6,3.6,7.8c2.4,1.8,5.5,2.7,9.4,2.7s7-0.9,9.2-2.6
			c2.5-1.9,3.7-4.5,3.7-7.9c0-3.5-1.4-6.2-4.1-8.1c-2.4-1.7-5.3-2.5-8.8-2.5c-3.5,0-6.5,0.8-8.8,2.4
			C1126.3,2001.8,1124.9,2004.5,1124.9,2008.1z"/>
	</g>
	<g class="st14">
		<path class="st10" d="M1209.7,2008.3v-5.3c2.4-1,4.7-2.2,6.7-3.6c2.1-1.4,4.1-3.2,6.2-5.3h5v56.1h-5.3v-50.4
			c-1.7,1.6-3.7,3.2-6,4.7C1214.3,2005.9,1212.1,2007.1,1209.7,2008.3z"/>
		<path class="st10" d="M1261.8,1993c7,0,12,3.1,15.1,9.2c2.4,4.8,3.6,11.5,3.6,20c0,8.5-1.2,15.1-3.6,19.9
			c-3.1,6.2-8.1,9.3-15.1,9.3c-7,0-12-3.1-15.1-9.2c-2.4-4.8-3.6-11.5-3.6-20c0-8.5,1.2-15.1,3.6-19.9
			C1249.8,1996.1,1254.8,1993,1261.8,1993z M1261.8,1997.9c-5.2,0-8.8,3-10.9,9.1c-1.3,3.9-2,9-2,15.3c0,6.4,0.6,11.5,1.9,15.3
			c2.1,6,5.8,9.1,11,9.1c5.2,0,8.8-3,10.9-9.1c1.3-3.9,2-9,2-15.3c0-6.4-0.6-11.5-1.9-15.3C1270.7,2000.9,1267,1997.9,1261.8,1997.9
			z"/>
	</g>
	<g class="st14">
		<path class="st10" d="M1341.7,2008.3v-5.3c2.4-1,4.7-2.2,6.7-3.6s4.1-3.2,6.2-5.3h5v56.1h-5.3v-50.4c-1.7,1.6-3.7,3.2-6,4.7
			C1346.3,2005.9,1344.1,2007.1,1341.7,2008.3z"/>
		<path class="st10" d="M1412.5,2050.3h-35.2v-5.5c3.9-3.5,7.5-6.9,10.7-10.2c5.3-5.5,9.4-10.1,12.3-14.1c3.9-5.3,5.8-9.6,5.8-12.6
			c0-3.2-1.1-5.6-3.2-7.4c-2.1-1.7-4.8-2.6-8.1-2.6c-3.3,0-6.1,1-8.2,3.1c-2.1,2.1-3.2,4.8-3.2,8.1h-5.7c0-4.9,1.6-8.7,4.9-11.7
			c3.2-2.9,7.3-4.4,12.3-4.4c4.8,0,8.7,1.2,11.7,3.6c3.3,2.6,5,6.2,5,10.9c0,4-1.8,8.6-5.4,13.8c-2.7,3.8-6.6,8.3-11.7,13.4
			c-3.7,3.6-7.5,7.1-11.2,10.7h29V2050.3z"/>
	</g>
	<g class="st14">
		<path class="st10" d="M1481.1,2008.3v-5.3c2.4-1,4.7-2.2,6.7-3.6c2.1-1.4,4.1-3.2,6.2-5.3h5v56.1h-5.3v-50.4
			c-1.7,1.6-3.7,3.2-6,4.7C1485.7,2005.9,1483.5,2007.1,1481.1,2008.3z"/>
		<path class="st10" d="M1540.8,2050.3v-13h-26.3l0-5.1l24.6-38h7v38.7h9v4.4h-9v13H1540.8z M1540.8,2032.9v-33.4l-21.9,33.4H1540.8
			z"/>
	</g>
	<g class="st14">
		<path class="st10" d="M1615.1,2008.3v-5.3c2.4-1,4.7-2.2,6.7-3.6c2.1-1.4,4.1-3.2,6.2-5.3h5v56.1h-5.3v-50.4
			c-1.7,1.6-3.7,3.2-6,4.7C1619.7,2005.9,1617.5,2007.1,1615.1,2008.3z"/>
		<path class="st10" d="M1670.7,1993c4.9,0,8.8,1.2,11.7,3.5c3.2,2.5,4.9,6.2,4.9,10.8h-5.7c0-2.8-1-5.1-3.1-6.8
			c-2.1-1.8-4.6-2.6-7.6-2.6c-6,0-10.2,2.9-12.5,8.6c-1.6,3.9-2.4,9.4-2.4,16.6c1.3-3,3.3-5.2,5.9-6.8c2.6-1.6,5.6-2.3,9-2.3
			c5.3,0,9.6,1.8,12.7,5.3c3,3.3,4.5,7.8,4.5,13.3s-1.6,10-4.8,13.6c-3.2,3.6-7.5,5.4-12.9,5.4c-7.2,0-12.5-2.7-15.9-8.1
			c-2.8-4.5-4.2-10.6-4.2-18.3c0-5.9,0.4-10.8,1.2-14.6c1.1-5.3,3-9.4,5.7-12.2C1660.6,1994.7,1665.1,1993,1670.7,1993z
			 M1670.6,2018.4c-4.3,0-7.7,1.4-10.1,4.2c-2.4,2.8-3.6,6.3-3.6,10.6c0,3.6,1.2,6.7,3.6,9.4c2.4,2.7,5.4,4,9,4c4,0,7.2-1.3,9.4-3.8
			c2.2-2.6,3.4-5.9,3.4-10c0-4.1-0.9-7.4-2.7-9.9C1677.6,2019.8,1674.6,2018.4,1670.6,2018.4z"/>
	</g>
	<g class="st14">
		<path class="st10" d="M1730.4,2008.3v-5.3c2.4-1,4.7-2.2,6.7-3.6c2.1-1.4,4.1-3.2,6.2-5.3h5v56.1h-5.3v-50.4
			c-1.7,1.6-3.7,3.2-6,4.7C1735,2005.9,1732.8,2007.1,1730.4,2008.3z"/>
		<path class="st10" d="M1800.2,1994.1l-0.1,4.7l-21.7,51.4l-6.2,0l22.4-51.3h-30.2v-4.9H1800.2z"/>
	</g>
</g>
<g id="Layer_3">
</g>
<g id="Layer_2_1_">
</g>
</svg>
